<?xml version="1.0" encoding="utf-8"?>
<!-- Generator: Adobe Illustrator 24.0.1, SVG Export Plug-In . SVG Version: 6.00 Build 0)  -->
<svg version="1.1" id="Layer_1" xmlns="http://www.w3.org/2000/svg" xmlns:xlink="http://www.w3.org/1999/xlink" x="0px" y="0px"
	 viewBox="0 0 200 40" style="enable-background:new 0 0 200 40;" xml:space="preserve">
<style type="text/css">
	.st0{fill:#091157;}
</style>
<g>
	<g>
		<g>
			<path class="st0" d="M26.6,38.32c-4.06,0-7.91-1.3-11.12-3.76c-0.24-0.19-0.29-0.54-0.1-0.78c0.19-0.24,0.54-0.29,0.78-0.1
				c3.02,2.31,6.63,3.54,10.44,3.54s7.43-1.22,10.44-3.54c0.36-0.28,0.71-0.57,1.05-0.87c1.16-1.04,2.17-2.23,3-3.54
				c0.19-0.29,0.36-0.58,0.52-0.87c0.63-1.12,1.13-2.31,1.48-3.54c0.08-0.28,0.16-0.58,0.23-0.87c0.27-1.15,0.43-2.34,0.46-3.54
				c0-0.14,0-0.29,0-0.44s0-0.29,0-0.44c-0.03-1.19-0.18-2.38-0.46-3.54c-0.07-0.3-0.15-0.59-0.23-0.87
				c-0.36-1.23-0.86-2.42-1.48-3.54c-0.16-0.29-0.34-0.58-0.52-0.87c-0.84-1.31-1.84-2.5-3-3.54c-0.34-0.3-0.69-0.6-1.05-0.87
				c-2.9-2.22-6.36-3.44-10.01-3.53l-0.44-0.01l-0.44,0.01c-3.65,0.09-7.11,1.31-10.01,3.53c-0.24,0.19-0.6,0.14-0.78-0.1
				c-0.19-0.24-0.14-0.6,0.1-0.78c2.94-2.25,6.43-3.54,10.12-3.74V1.68h2.02v0.05c3.69,0.2,7.17,1.48,10.12,3.74
				c0.38,0.29,0.76,0.61,1.12,0.93c1.23,1.1,2.31,2.37,3.19,3.76c0.2,0.31,0.38,0.62,0.56,0.93c0.67,1.19,1.2,2.46,1.58,3.76
				c0.09,0.3,0.17,0.61,0.25,0.93c0.29,1.23,0.45,2.5,0.48,3.76c0,0.15,0.01,0.31,0.01,0.47c0,0.15,0,0.31-0.01,0.46
				c-0.03,1.27-0.19,2.54-0.48,3.76c-0.08,0.32-0.16,0.63-0.25,0.93c-0.38,1.31-0.91,2.57-1.58,3.76c-0.17,0.31-0.36,0.62-0.56,0.93
				c-0.89,1.39-1.96,2.66-3.19,3.76c-0.36,0.32-0.74,0.63-1.12,0.93C34.51,37.02,30.67,38.32,26.6,38.32z"/>
		</g>
		<path class="st0" d="M33.67,29.37c-0.41,1.33-0.9,2.53-1.46,3.57H34c0.33-0.36,0.64-0.75,0.95-1.16c0.55-0.75,1.04-1.56,1.47-2.42
			H33.67z"/>
		<path class="st0" d="M35.65,33.83h-1.27c-0.57,0.6-1.18,1.13-1.83,1.59c0.16-0.06,0.32-0.13,0.48-0.19
			C33.95,34.83,34.82,34.37,35.65,33.83z"/>
		<path class="st0" d="M37.99,24.91h-3.33c-0.18,1.25-0.42,2.45-0.72,3.57h2.9C37.32,27.36,37.71,26.16,37.99,24.91z"/>
		<path class="st0" d="M31.7,33.83c-0.48,0.76-0.99,1.41-1.55,1.94c1.04-0.45,2.04-1.1,2.96-1.94H31.7z"/>
		<path class="st0" d="M27.04,32.94h1.59c0.08-0.27,0.16-0.55,0.23-0.85c0.21-0.84,0.4-1.75,0.56-2.72h-2.38L27.04,32.94
			L27.04,32.94z"/>
		<path class="st0" d="M29.29,35.37c0.48-0.42,0.93-0.93,1.36-1.55h-1.36c-0.3,0.9-0.63,1.66-0.98,2.24
			C28.64,35.89,28.96,35.66,29.29,35.37z"/>
		<path class="st0" d="M38.52,20.46h-3.53c-0.01,1.23-0.09,2.42-0.22,3.57h3.4C38.38,22.87,38.49,21.67,38.52,20.46z"/>
		<path class="st0" d="M38.17,15.99h-3.4c0.13,1.15,0.21,2.35,0.22,3.57h3.53C38.49,18.35,38.38,17.15,38.17,15.99z"/>
		<path class="st0" d="M40.21,29.37H37.4c-0.62,1.33-1.38,2.53-2.23,3.57h1.71c0.49-0.39,0.96-0.81,1.41-1.26
			C39,30.97,39.64,30.19,40.21,29.37z"/>
		<path class="st0" d="M42.37,24.91h-3.49c-0.27,1.26-0.64,2.45-1.1,3.57h2.99c0.39-0.66,0.74-1.34,1.04-2.05
			C42.03,25.94,42.22,25.43,42.37,24.91z"/>
		<path class="st0" d="M43.1,20.46H39.4c-0.02,1.23-0.14,2.42-0.34,3.57h3.56C42.91,22.86,43.08,21.67,43.1,20.46z"/>
		<path class="st0" d="M42.37,15.11c-0.16-0.52-0.35-1.03-0.56-1.53c-0.3-0.71-0.65-1.39-1.04-2.05h-2.99
			c0.46,1.12,0.84,2.32,1.1,3.57L42.37,15.11L42.37,15.11z"/>
		<path class="st0" d="M39.06,15.99c0.2,1.15,0.32,2.35,0.34,3.57h3.71c-0.03-1.22-0.19-2.41-0.48-3.57H39.06z"/>
		<path class="st0" d="M27.04,33.83v2.43c0.35-0.34,0.82-1.05,1.31-2.43H27.04z"/>
		<path class="st0" d="M36.87,7.08h-1.71c0.86,1.05,1.61,2.25,2.23,3.57h2.81c-0.57-0.82-1.21-1.6-1.93-2.32
			C37.83,7.89,37.36,7.47,36.87,7.08z"/>
		<path class="st0" d="M27.04,28.49h2.52c0.16-1.13,0.29-2.33,0.39-3.57h-2.91V28.49z"/>
		<path class="st0" d="M33.88,15.99H30.9c0.07,1.15,0.11,2.35,0.11,3.57h3.09C34.09,18.35,34.02,17.15,33.88,15.99z"/>
		<path class="st0" d="M27.04,24.03h2.97c0.07-1.16,0.11-2.36,0.12-3.57h-3.09L27.04,24.03L27.04,24.03z"/>
		<path class="st0" d="M37.99,15.11c-0.28-1.25-0.67-2.45-1.16-3.57h-2.9c0.3,1.12,0.55,2.32,0.72,3.57H37.99z"/>
		<path class="st0" d="M33.76,24.91h-2.92c-0.09,1.25-0.22,2.45-0.38,3.57h2.56C33.33,27.36,33.59,26.16,33.76,24.91z"/>
		<path class="st0" d="M31.2,32.94c0.19-0.32,0.37-0.66,0.54-1.02c0.38-0.79,0.72-1.65,1.01-2.56h-2.43
			c-0.22,1.33-0.47,2.53-0.77,3.57L31.2,32.94L31.2,32.94z"/>
		<path class="st0" d="M31.2,7.08h-1.65c0.3,1.05,0.56,2.25,0.77,3.57h2.43c-0.29-0.91-0.63-1.77-1.01-2.56
			C31.57,7.74,31.39,7.4,31.2,7.08z"/>
		<path class="st0" d="M33.76,15.11c-0.18-1.25-0.43-2.45-0.75-3.57h-2.56c0.16,1.12,0.29,2.32,0.38,3.57H33.76z"/>
		<path class="st0" d="M34,7.08h-1.79c0.56,1.05,1.05,2.25,1.46,3.57h2.74c-0.43-0.86-0.92-1.67-1.47-2.42
			C34.64,7.83,34.33,7.44,34,7.08z"/>
		<path class="st0" d="M34.11,20.46h-3.09c-0.01,1.23-0.05,2.42-0.11,3.57h2.98C34.02,22.87,34.09,21.67,34.11,20.46z"/>
		<path class="st0" d="M27.04,15.11h2.91c-0.09-1.25-0.22-2.45-0.39-3.57h-2.52V15.11z"/>
		<path class="st0" d="M27.04,10.66h2.38c-0.16-0.97-0.35-1.88-0.56-2.72c-0.08-0.3-0.15-0.59-0.23-0.85h-1.59L27.04,10.66
			L27.04,10.66z"/>
		<path class="st0" d="M33.03,4.8c-0.16-0.07-0.32-0.13-0.48-0.19c0.65,0.46,1.25,0.99,1.83,1.59h1.27
			C34.82,5.65,33.95,5.19,33.03,4.8z"/>
		<path class="st0" d="M27.04,19.57h3.09c-0.01-1.22-0.05-2.42-0.12-3.57h-2.97L27.04,19.57L27.04,19.57z"/>
		<path class="st0" d="M27.04,6.2h1.31c-0.49-1.38-0.96-2.1-1.31-2.43V6.2z"/>
		<path class="st0" d="M31.7,6.2h1.42c-0.92-0.84-1.92-1.49-2.96-1.94C30.71,4.79,31.22,5.44,31.7,6.2z"/>
		<path class="st0" d="M29.29,4.65c-0.32-0.28-0.65-0.52-0.98-0.7c0.35,0.58,0.68,1.33,0.98,2.24h1.36
			C30.21,5.59,29.76,5.07,29.29,4.65z"/>
		<path class="st0" d="M20.61,10.66c0.41-1.33,0.9-2.53,1.46-3.57h-1.79c-0.33,0.36-0.64,0.75-0.95,1.16
			c-0.55,0.75-1.04,1.56-1.47,2.42H20.61z"/>
		<path class="st0" d="M26.16,20.46h-3.09c0.01,1.22,0.05,2.42,0.12,3.57h2.97L26.16,20.46L26.16,20.46z"/>
		<path class="st0" d="M26.16,15.99h-2.97c-0.07,1.16-0.11,2.36-0.12,3.57h3.09L26.16,15.99L26.16,15.99z"/>
		<path class="st0" d="M19.1,19.57h3.09c0.01-1.23,0.05-2.42,0.11-3.57h-2.98C19.2,17.15,19.12,18.35,19.1,19.57z"/>
		<path class="st0" d="M26.16,33.83h-1.31c0.49,1.38,0.96,2.1,1.31,2.43V33.83z"/>
		<path class="st0" d="M26.16,7.08h-1.59c-0.08,0.27-0.16,0.55-0.23,0.85c-0.21,0.84-0.4,1.75-0.56,2.72h2.38L26.16,7.08L26.16,7.08
			z"/>
		<path class="st0" d="M26.16,24.91h-2.91c0.09,1.25,0.22,2.45,0.39,3.57h2.52V24.91z"/>
		<path class="st0" d="M23.92,35.37c0.32,0.28,0.65,0.52,0.98,0.7c-0.35-0.58-0.68-1.33-0.98-2.24h-1.36
			C22.99,34.44,23.45,34.96,23.92,35.37z"/>
		<path class="st0" d="M26.16,29.37h-2.38c0.16,0.97,0.35,1.88,0.56,2.72c0.08,0.3,0.15,0.59,0.23,0.85h1.59L26.16,29.37
			L26.16,29.37z"/>
		<path class="st0" d="M16.5,28.49c-0.46-1.12-0.84-2.32-1.1-3.57h-3.49c0.16,0.52,0.35,1.03,0.56,1.53
			c0.3,0.71,0.65,1.39,1.04,2.05L16.5,28.49L16.5,28.49z"/>
		<path class="st0" d="M12.74,33.84h1.71c-0.86-1.05-1.61-2.25-2.23-3.57H9.4c0.57,0.82,1.21,1.6,1.93,2.32
			C11.78,33.03,12.25,33.45,12.74,33.84z"/>
		<path class="st0" d="M10.52,24.03c-0.2-1.15-0.32-2.35-0.34-3.57H6.47c0.03,1.22,0.19,2.41,0.48,3.57H10.52z"/>
		<path class="st0" d="M7.85,16.89h3.49c0.27-1.26,0.64-2.45,1.1-3.57H9.45c-0.39,0.66-0.74,1.34-1.04,2.05
			C8.2,15.87,8.01,16.38,7.85,16.89z"/>
		<path class="st0" d="M11.39,10.66h2.81c0.62-1.33,1.38-2.53,2.23-3.57h-1.71c-0.49,0.39-0.96,0.81-1.41,1.26
			C12.6,9.06,11.96,9.83,11.39,10.66z"/>
		<path class="st0" d="M12.25,19.57h3.71c0.02-1.23,0.14-2.42,0.34-3.57h-3.56C12.45,17.16,12.29,18.35,12.25,19.57z"/>
		<path class="st0" d="M26.16,3.76c-0.35,0.34-0.82,1.05-1.31,2.43h1.31V3.76z"/>
		<path class="st0" d="M26.16,11.54h-2.52c-0.16,1.13-0.29,2.33-0.39,3.57h2.91V11.54z"/>
		<path class="st0" d="M7.78,8.86C7.6,9.18,7.42,9.52,7.25,9.88c-0.38,0.79-0.72,1.65-1.01,2.56h2.43c0.22-1.33,0.47-2.53,0.77-3.57
			L7.78,8.86L7.78,8.86z"/>
		<path class="st0" d="M24.91,3.96c-0.33,0.18-0.66,0.41-0.98,0.7C23.45,5.07,23,5.59,22.57,6.2h1.36
			C24.22,5.29,24.55,4.54,24.91,3.96z"/>
		<path class="st0" d="M21.51,6.2c0.48-0.76,0.99-1.41,1.55-1.94c-1.05,0.45-2.04,1.1-2.96,1.94H21.51z"/>
		<path class="st0" d="M22.01,32.94h1.65c-0.3-1.05-0.56-2.25-0.77-3.57h-2.43c0.29,0.91,0.63,1.77,1.01,2.56
			C21.64,32.28,21.82,32.62,22.01,32.94z"/>
		<path class="st0" d="M22.75,11.54h-2.56c-0.32,1.13-0.57,2.32-0.75,3.57h2.92C22.46,13.86,22.59,12.66,22.75,11.54z"/>
		<path class="st0" d="M19.33,24.03h2.98c-0.07-1.15-0.11-2.35-0.11-3.57h-3.09C19.12,21.67,19.2,22.87,19.33,24.03z"/>
		<path class="st0" d="M22.75,28.49c-0.16-1.12-0.29-2.32-0.38-3.57h-2.92c0.18,1.25,0.43,2.45,0.75,3.57H22.75z"/>
		<path class="st0" d="M15.22,15.11h3.33c0.18-1.25,0.42-2.45,0.72-3.57h-2.9C15.89,12.66,15.5,13.86,15.22,15.11z"/>
		<path class="st0" d="M17.56,6.2h1.27c0.57-0.6,1.18-1.13,1.83-1.59c-0.16,0.06-0.32,0.13-0.48,0.19
			C19.26,5.19,18.39,5.65,17.56,6.2z"/>
		<path class="st0" d="M19.21,32.94H21c-0.56-1.05-1.05-2.25-1.46-3.57h-2.74c0.43,0.86,0.92,1.67,1.47,2.42
			C18.57,32.2,18.88,32.59,19.21,32.94z"/>
		<path class="st0" d="M20.18,35.22c0.16,0.07,0.32,0.13,0.48,0.19c-0.65-0.46-1.25-0.99-1.83-1.59h-1.27
			C18.39,34.37,19.26,34.83,20.18,35.22z"/>
		<path class="st0" d="M8.04,29.37c-0.3-1.12-0.55-2.32-0.72-3.57H3.98c0.28,1.25,0.67,2.45,1.16,3.57H8.04z"/>
		<path class="st0" d="M21.51,33.83h-1.42c0.92,0.84,1.92,1.49,2.96,1.94C22.51,35.24,21.99,34.59,21.51,33.83z"/>
		<path class="st0" d="M15.04,24.03h3.4c-0.13-1.15-0.21-2.35-0.22-3.57H14.7C14.71,21.67,14.83,22.87,15.04,24.03z"/>
		<path class="st0" d="M2.11,18.32h3.53c0.01-1.23,0.09-2.42,0.22-3.57h-3.4C2.25,15.91,2.14,17.1,2.11,18.32z"/>
	</g>
	<g>
		<path class="st0" d="M70.92,27.68h-2.68l-4.2-11.84l-4.17,11.84H57.2l-4.52-15.47h3.03l3.18,11.72l3.96-11.72h2.41l3.96,11.72
			l3.18-11.72h3.03L70.92,27.68z"/>
		<path class="st0" d="M90.76,20.98H79.28c0.3,3.24,2.02,4.61,4.64,4.61c1.81,0,2.89-0.51,3.66-1.7h2.71
			c-1.13,2.77-3.24,3.99-6.54,3.99c-3.72,0-7.35-2.41-7.35-7.88c0-5.56,3.69-7.94,7.35-7.94c3.75,0,7.05,2.38,7.05,8.15
			C90.79,20.48,90.79,20.71,90.76,20.98z M87.91,19.02c-0.06-3-1.67-4.67-4.17-4.67c-2.38,0-4.17,1.52-4.46,4.67H87.91z"/>
		<path class="st0" d="M108.08,19.94c0,5.62-3.69,7.94-6.9,7.94c-2.74,0-4.31-1.76-4.82-3.09v2.89h-3v-21h3v8.12
			c0.8-1.55,2.62-2.74,4.88-2.74C104.36,12.06,108.08,14.41,108.08,19.94z M105.16,19.94c0-3.78-2.08-5.41-4.49-5.41
			c-2.35,0-4.46,1.67-4.46,5.41c0,3.72,2.11,5.48,4.46,5.48C103.08,25.41,105.16,23.75,105.16,19.94z"/>
		<path class="st0" d="M126.17,19.94c0,5.86-4.28,7.94-6.9,7.94c-2.53,0-3.66-1.37-3.87-1.79v7.23h-4.88V12.2h4.88v1.67
			c0.39-0.6,1.81-1.81,3.96-1.81C121.91,12.06,126.17,14.23,126.17,19.94z M121.4,19.94c0-2.83-1.52-3.99-3.21-3.99
			c-1.72,0-3,1.31-3,3.99c0,2.74,1.28,4.04,3,4.04C119.89,23.99,121.4,22.8,121.4,19.94z"/>
		<path class="st0" d="M143.06,21.43h-10.53c0.3,2.05,1.34,2.86,3.27,2.86c1.55,0,2.38-0.53,2.68-1.31h4.2
			c-0.77,3.27-3.24,4.91-7.17,4.91c-3.42,0-7.68-2.08-7.68-7.85c0-5.83,4.2-7.97,7.77-7.97c3.87,0,7.5,2.14,7.5,8.6
			C143.09,20.92,143.09,21.19,143.06,21.43z M138.42,18.48c-0.06-1.64-0.95-2.83-2.83-2.83c-1.7,0-2.71,0.95-3.03,2.83H138.42z"/>
		<path class="st0" d="M154.19,27.68l-2.94-4.58l-2.98,4.58H143l5.5-8.09l-5-7.38h5.32l2.41,3.84l2.38-3.84h5.32l-5,7.38l5.53,8.09
			H154.19z"/>
		<path class="st0" d="M174.63,21.43h-10.53c0.3,2.05,1.34,2.86,3.27,2.86c1.55,0,2.38-0.53,2.68-1.31h4.2
			c-0.77,3.27-3.24,4.91-7.17,4.91c-3.42,0-7.68-2.08-7.68-7.85c0-5.83,4.2-7.97,7.77-7.97c3.87,0,7.5,2.14,7.5,8.6
			C174.65,20.92,174.65,21.19,174.63,21.43z M169.99,18.48c-0.06-1.64-0.95-2.83-2.83-2.83c-1.7,0-2.71,0.95-3.03,2.83H169.99z"/>
		<path class="st0" d="M181.79,6.67v21h-4.88v-21L181.79,6.67L181.79,6.67z"/>
		<path class="st0" d="M190.9,15.66c-1.13,0-1.96,0.36-1.96,1.28c0,0.62,0.51,0.98,1.34,1.19l2.83,0.6
			c2.77,0.62,4.79,0.98,4.79,4.28s-2.94,4.88-7.05,4.88c-4.08,0-6.52-1.79-6.93-5.27h4.46c0.3,1.1,1.01,1.7,2.53,1.7
			c1.61,0,2.11-0.66,2.11-1.37c0-0.6-0.3-0.92-1.31-1.13l-2.44-0.51c-3.72-0.8-4.85-2.44-4.85-4.55c0-2.92,2.32-4.7,6.43-4.7
			c4.34,0,6.28,2.14,6.75,5.15h-4.4C192.92,16.01,192.15,15.66,190.9,15.66z"/>
	</g>
</g>
</svg>
