<svg xmlns="http://www.w3.org/2000/svg" xmlns:xlink="http://www.w3.org/1999/xlink" viewBox="0 0 625.02 625.02"><defs><style>.cls-1{opacity:0.15;fill:url(#linear-gradient);}.cls-2{fill:#2a94f4;}</style><linearGradient id="linear-gradient" x1="538.56" y1="674.94" x2="215.6" y2="115.58" gradientUnits="userSpaceOnUse"><stop offset="0" stop-color="#43aced" stop-opacity="0"/><stop offset="1" stop-color="#231f20"/></linearGradient></defs><title>Multimedia Icons</title><g id="Layer_2" data-name="Layer 2"><path class="cls-1" d="M115.55,461.63,275,625H625V305.36L506.52,160.85H141.19s-34.72,3.92-34.72,56.85,9.08,243.93,9.08,243.93"/></g><g id="Layer_1" data-name="Layer 1"><path class="cls-2" d="M474.25,149.66H150.86A52.39,52.39,0,0,0,98.52,202V423a52.38,52.38,0,0,0,52.34,52.33h323.3A52.38,52.38,0,0,0,526.5,423V202.09a52.34,52.34,0,0,0-52.25-52.43ZM502.68,423a28.46,28.46,0,0,1-28.43,28.42H150.86A28.46,28.46,0,0,1,122.43,423V202.09a28.46,28.46,0,0,1,28.43-28.43h323.3a28.46,28.46,0,0,1,28.43,28.43V423Zm0,0"/><path class="cls-2" d="M368.43,309.77,473.1,215.9a12,12,0,0,0-16-17.8L312.73,327.66,284.57,302.5a.41.41,0,0,1-.17-.26,18.36,18.36,0,0,0-1.95-1.68L167.86,198a12,12,0,1,0-15.94,17.89l105.91,94.66L152.36,409.3a12,12,0,0,0-.53,16.91A12.23,12.23,0,0,0,160.6,430a12,12,0,0,0,8.15-3.19L275.8,326.68l29.05,25.94a11.94,11.94,0,0,0,15.94-.08l29.84-26.74L457.07,426.92a12,12,0,0,0,16.91-.44,12,12,0,0,0-.44-16.91Zm0,0"/></g></svg>