<svg id="Layer_1" data-name="Layer 1" xmlns="http://www.w3.org/2000/svg" viewBox="0 0 195.77 36.65"><defs><style>.cls-1{fill:#fff;}</style></defs><title>webpexels white new size</title><path class="cls-1" d="M26.6,38.32a18.16,18.16,0,0,1-11.12-3.76.56.56,0,0,1,.68-.89,17.18,17.18,0,0,0,20.89,0c.36-.27.71-.57,1.05-.87a17.12,17.12,0,0,0,3-3.53c.19-.3.36-.59.52-.88a16.62,16.62,0,0,0,1.49-3.53c.08-.28.16-.58.23-.88a17.42,17.42,0,0,0,.46-3.53v-.88A17.42,17.42,0,0,0,43.34,16c-.07-.3-.15-.59-.23-.87a17.44,17.44,0,0,0-1.48-3.54c-.16-.29-.34-.58-.53-.87a16.92,16.92,0,0,0-3-3.54c-.33-.3-.69-.59-1.05-.87A17.07,17.07,0,0,0,27,2.82h-.87a17.19,17.19,0,0,0-10,3.53.56.56,0,1,1-.68-.88A18.21,18.21,0,0,1,25.6,1.73V1.68h2v.05A18.18,18.18,0,0,1,37.73,5.47c.38.29.76.6,1.12.93A18.22,18.22,0,0,1,42,10.16c.2.31.39.62.56.93a17.51,17.51,0,0,1,1.58,3.76c.09.3.17.61.25.93a18.35,18.35,0,0,1,.48,3.76c0,.16,0,.31,0,.47s0,.31,0,.46a18.36,18.36,0,0,1-.48,3.77c-.08.31-.16.63-.25.93a17.73,17.73,0,0,1-1.58,3.76c-.17.31-.36.62-.56.93a18.22,18.22,0,0,1-3.19,3.76c-.36.32-.74.64-1.12.93A18.11,18.11,0,0,1,26.6,38.32Z" transform="translate(-2.11 -1.68)"/><path class="cls-1" d="M33.67,29.37a19.25,19.25,0,0,1-1.46,3.57H34c.33-.36.64-.75,1-1.15a16.77,16.77,0,0,0,1.47-2.42Z" transform="translate(-2.11 -1.68)"/><path class="cls-1" d="M35.65,33.83H34.38a14.27,14.27,0,0,1-1.83,1.59l.48-.2A16.82,16.82,0,0,0,35.65,33.83Z" transform="translate(-2.11 -1.68)"/><path class="cls-1" d="M38,24.91H34.65a29.05,29.05,0,0,1-.72,3.58h2.9A20,20,0,0,0,38,24.91Z" transform="translate(-2.11 -1.68)"/><path class="cls-1" d="M31.7,33.83a10,10,0,0,1-1.55,1.94,10.76,10.76,0,0,0,3-1.94Z" transform="translate(-2.11 -1.68)"/><path class="cls-1" d="M27,32.94h1.6c.08-.26.15-.54.23-.85.21-.84.4-1.75.56-2.72H27.05v3.57Z" transform="translate(-2.11 -1.68)"/><path class="cls-1" d="M29.29,35.37a8.65,8.65,0,0,0,1.35-1.54H29.29a12,12,0,0,1-1,2.24A5.14,5.14,0,0,0,29.29,35.37Z" transform="translate(-2.11 -1.68)"/><path class="cls-1" d="M38.52,20.46H35A34.39,34.39,0,0,1,34.77,24h3.4A23.34,23.34,0,0,0,38.52,20.46Z" transform="translate(-2.11 -1.68)"/><path class="cls-1" d="M38.17,16H34.76A34.55,34.55,0,0,1,35,19.57h3.53A23.35,23.35,0,0,0,38.17,16Z" transform="translate(-2.11 -1.68)"/><path class="cls-1" d="M40.21,29.37H37.4a17,17,0,0,1-2.24,3.57h1.71a18.52,18.52,0,0,0,1.41-1.25A17,17,0,0,0,40.21,29.37Z" transform="translate(-2.11 -1.68)"/><path class="cls-1" d="M42.37,24.91H38.89a20.44,20.44,0,0,1-1.11,3.58h3a15.78,15.78,0,0,0,1-2A12.2,12.2,0,0,0,42.37,24.91Z" transform="translate(-2.11 -1.68)"/><path class="cls-1" d="M43.1,20.46H39.4A23.1,23.1,0,0,1,39.06,24h3.56A15.9,15.9,0,0,0,43.1,20.46Z" transform="translate(-2.11 -1.68)"/><path class="cls-1" d="M42.37,15.11a14.65,14.65,0,0,0-.56-1.52,15.16,15.16,0,0,0-1-2.05h-3a20.33,20.33,0,0,1,1.11,3.57Z" transform="translate(-2.11 -1.68)"/><path class="cls-1" d="M39.06,16a23.23,23.23,0,0,1,.34,3.58h3.71A16.51,16.51,0,0,0,42.62,16Z" transform="translate(-2.11 -1.68)"/><path class="cls-1" d="M27,33.83v2.43a6.23,6.23,0,0,0,1.31-2.43Z" transform="translate(-2.11 -1.68)"/><path class="cls-1" d="M36.87,7.08H35.16a16.92,16.92,0,0,1,2.23,3.58H40.2a17,17,0,0,0-1.92-2.32A16.71,16.71,0,0,0,36.87,7.08Z" transform="translate(-2.11 -1.68)"/><path class="cls-1" d="M27,28.49h2.53c.16-1.13.29-2.33.39-3.58H27Z" transform="translate(-2.11 -1.68)"/><path class="cls-1" d="M33.88,16h-3c.07,1.16.11,2.35.11,3.58H34.1A32.16,32.16,0,0,0,33.88,16Z" transform="translate(-2.11 -1.68)"/><path class="cls-1" d="M27,24h3c.08-1.16.11-2.36.12-3.57H27V24Z" transform="translate(-2.11 -1.68)"/><path class="cls-1" d="M38,15.11a19.62,19.62,0,0,0-1.16-3.57h-2.9a28.89,28.89,0,0,1,.72,3.57Z" transform="translate(-2.11 -1.68)"/><path class="cls-1" d="M33.76,24.91H30.84c-.09,1.26-.22,2.45-.38,3.58H33A27.62,27.62,0,0,0,33.76,24.91Z" transform="translate(-2.11 -1.68)"/><path class="cls-1" d="M31.2,32.94c.19-.32.37-.66.54-1a19.78,19.78,0,0,0,1-2.56H30.32a29.75,29.75,0,0,1-.77,3.57Z" transform="translate(-2.11 -1.68)"/><path class="cls-1" d="M31.2,7.08H29.55a32.42,32.42,0,0,1,.78,3.58h2.42a19.78,19.78,0,0,0-1-2.56Q31.49,7.56,31.2,7.08Z" transform="translate(-2.11 -1.68)"/><path class="cls-1" d="M33.76,15.11A27.12,27.12,0,0,0,33,11.54H30.46c.16,1.12.29,2.32.38,3.57Z" transform="translate(-2.11 -1.68)"/><path class="cls-1" d="M34,7.08H32.21a20.38,20.38,0,0,1,1.46,3.58h2.74a16.77,16.77,0,0,0-1.47-2.42A13.57,13.57,0,0,0,34,7.08Z" transform="translate(-2.11 -1.68)"/><path class="cls-1" d="M34.11,20.46H31c0,1.22-.05,2.42-.12,3.57h3A34.71,34.71,0,0,0,34.11,20.46Z" transform="translate(-2.11 -1.68)"/><path class="cls-1" d="M27,15.11H30q-.15-1.87-.39-3.57H27Z" transform="translate(-2.11 -1.68)"/><path class="cls-1" d="M27,10.66h2.39c-.16-1-.35-1.89-.56-2.73-.08-.3-.16-.58-.24-.85H27v3.58Z" transform="translate(-2.11 -1.68)"/><path class="cls-1" d="M33,4.8l-.48-.19A13.53,13.53,0,0,1,34.38,6.2h1.27A16.06,16.06,0,0,0,33,4.8Z" transform="translate(-2.11 -1.68)"/><path class="cls-1" d="M27,19.57h3.09c0-1.22,0-2.42-.12-3.58H27v3.58Z" transform="translate(-2.11 -1.68)"/><path class="cls-1" d="M27,6.2h1.31A6.3,6.3,0,0,0,27,3.76Z" transform="translate(-2.11 -1.68)"/><path class="cls-1" d="M31.7,6.2h1.42a10.72,10.72,0,0,0-3-1.94A10.36,10.36,0,0,1,31.7,6.2Z" transform="translate(-2.11 -1.68)"/><path class="cls-1" d="M29.29,4.65a5.92,5.92,0,0,0-1-.69,11.7,11.7,0,0,1,1,2.24h1.35A9.1,9.1,0,0,0,29.29,4.65Z" transform="translate(-2.11 -1.68)"/><path class="cls-1" d="M20.61,10.66a20.38,20.38,0,0,1,1.46-3.58H20.28c-.32.36-.64.75-.94,1.16a16,16,0,0,0-1.48,2.42Z" transform="translate(-2.11 -1.68)"/><path class="cls-1" d="M26.16,20.46H23.08c0,1.21,0,2.41.11,3.57h3V20.46Z" transform="translate(-2.11 -1.68)"/><path class="cls-1" d="M26.16,16h-3c-.07,1.16-.11,2.36-.11,3.58h3.08V16Z" transform="translate(-2.11 -1.68)"/><path class="cls-1" d="M19.1,19.57h3.09c0-1.23,0-2.42.12-3.58h-3C19.2,17.15,19.12,18.35,19.1,19.57Z" transform="translate(-2.11 -1.68)"/><path class="cls-1" d="M26.16,33.83H24.85a6.51,6.51,0,0,0,1.31,2.43Z" transform="translate(-2.11 -1.68)"/><path class="cls-1" d="M26.16,7.08H24.57c-.08.27-.16.55-.23.85q-.32,1.26-.57,2.73h2.39V7.08Z" transform="translate(-2.11 -1.68)"/><path class="cls-1" d="M26.16,24.91H23.25c.09,1.25.22,2.45.39,3.58h2.52Z" transform="translate(-2.11 -1.68)"/><path class="cls-1" d="M23.92,35.37a5.56,5.56,0,0,0,1,.7,11.4,11.4,0,0,1-1-2.24H22.57A8.27,8.27,0,0,0,23.92,35.37Z" transform="translate(-2.11 -1.68)"/><path class="cls-1" d="M26.16,29.37H23.78c.16,1,.35,1.88.56,2.72.08.31.16.59.23.85h1.6V29.37Z" transform="translate(-2.11 -1.68)"/><path class="cls-1" d="M16.5,28.49a20.42,20.42,0,0,1-1.1-3.58H11.91c.16.52.35,1,.56,1.53a15.78,15.78,0,0,0,1,2Z" transform="translate(-2.11 -1.68)"/><path class="cls-1" d="M12.74,33.84h1.71a17.36,17.36,0,0,1-2.24-3.58H9.4a17.09,17.09,0,0,0,1.93,2.32A16.71,16.71,0,0,0,12.74,33.84Z" transform="translate(-2.11 -1.68)"/><path class="cls-1" d="M10.52,24a23.1,23.1,0,0,1-.34-3.57H6.47A16.41,16.41,0,0,0,7,24Z" transform="translate(-2.11 -1.68)"/><path class="cls-1" d="M7.85,16.89h3.49a21.19,21.19,0,0,1,1.1-3.57h-3a17.14,17.14,0,0,0-1,2C8.2,15.87,8,16.38,7.85,16.89Z" transform="translate(-2.11 -1.68)"/><path class="cls-1" d="M11.39,10.66H14.2a17.36,17.36,0,0,1,2.24-3.58H14.73a16.71,16.71,0,0,0-1.41,1.26A16.39,16.39,0,0,0,11.39,10.66Z" transform="translate(-2.11 -1.68)"/><path class="cls-1" d="M12.25,19.57H16A23.23,23.23,0,0,1,16.3,16H12.74A17.15,17.15,0,0,0,12.25,19.57Z" transform="translate(-2.11 -1.68)"/><path class="cls-1" d="M26.16,3.76A6.58,6.58,0,0,0,24.85,6.2h1.31Z" transform="translate(-2.11 -1.68)"/><path class="cls-1" d="M26.16,11.54H23.64q-.26,1.7-.39,3.57h2.91Z" transform="translate(-2.11 -1.68)"/><path class="cls-1" d="M7.78,8.86c-.18.32-.36.66-.53,1a18.45,18.45,0,0,0-1,2.56H8.66a32.54,32.54,0,0,1,.77-3.58Z" transform="translate(-2.11 -1.68)"/><path class="cls-1" d="M24.91,4a5.15,5.15,0,0,0-1,.69A8.72,8.72,0,0,0,22.57,6.2h1.36A10.11,10.11,0,0,1,24.91,4Z" transform="translate(-2.11 -1.68)"/><path class="cls-1" d="M21.51,6.2a10.36,10.36,0,0,1,1.54-1.94,10.72,10.72,0,0,0-3,1.94Z" transform="translate(-2.11 -1.68)"/><path class="cls-1" d="M22,32.94h1.64a34.81,34.81,0,0,1-.77-3.57H20.45a21.33,21.33,0,0,0,1,2.56C21.64,32.28,21.82,32.62,22,32.94Z" transform="translate(-2.11 -1.68)"/><path class="cls-1" d="M22.75,11.54H20.19a28.85,28.85,0,0,0-.74,3.57h2.92C22.46,13.86,22.59,12.66,22.75,11.54Z" transform="translate(-2.11 -1.68)"/><path class="cls-1" d="M19.33,24h3c-.07-1.15-.11-2.35-.11-3.57H19.11A34.73,34.73,0,0,0,19.33,24Z" transform="translate(-2.11 -1.68)"/><path class="cls-1" d="M22.75,28.49c-.16-1.13-.29-2.32-.38-3.58H19.45a29.4,29.4,0,0,0,.74,3.58Z" transform="translate(-2.11 -1.68)"/><path class="cls-1" d="M15.22,15.11h3.33a28.87,28.87,0,0,1,.73-3.57h-2.9A19.62,19.62,0,0,0,15.22,15.11Z" transform="translate(-2.11 -1.68)"/><path class="cls-1" d="M17.56,6.2h1.27a12.42,12.42,0,0,1,1.83-1.59l-.48.19A16.06,16.06,0,0,0,17.56,6.2Z" transform="translate(-2.11 -1.68)"/><path class="cls-1" d="M19.21,32.94H21a20.27,20.27,0,0,1-1.46-3.57H16.79a16.82,16.82,0,0,0,1.48,2.42A12,12,0,0,0,19.21,32.94Z" transform="translate(-2.11 -1.68)"/><path class="cls-1" d="M20.18,35.22l.48.2a13,13,0,0,1-1.83-1.59H17.56A16.82,16.82,0,0,0,20.18,35.22Z" transform="translate(-2.11 -1.68)"/><path class="cls-1" d="M8,29.37a30.58,30.58,0,0,1-.73-3.58H4a19.72,19.72,0,0,0,1.16,3.58Z" transform="translate(-2.11 -1.68)"/><path class="cls-1" d="M21.51,33.83H20.09a10.72,10.72,0,0,0,3,1.94A10.78,10.78,0,0,1,21.51,33.83Z" transform="translate(-2.11 -1.68)"/><path class="cls-1" d="M15,24h3.41a34.35,34.35,0,0,1-.23-3.57H14.7A21.07,21.07,0,0,0,15,24Z" transform="translate(-2.11 -1.68)"/><path class="cls-1" d="M2.11,18.32H5.64c0-1.22.09-2.42.22-3.57H2.46A23.22,23.22,0,0,0,2.11,18.32Z" transform="translate(-2.11 -1.68)"/><path class="cls-1" d="M70.92,27.68H68.24L64.05,15.84,59.88,27.68H57.2L52.68,12.21h3L58.9,23.93l4-11.72h2.41l4,11.72,3.19-11.72h3Z" transform="translate(-2.11 -1.68)"/><path class="cls-1" d="M90.76,21H79.28c.29,3.24,2,4.61,4.64,4.61a3.85,3.85,0,0,0,3.66-1.69h2.7c-1.12,2.77-3.24,4-6.54,4-3.72,0-7.35-2.4-7.35-7.88s3.69-7.94,7.35-7.94,7.05,2.38,7.05,8.15A6.61,6.61,0,0,1,90.76,21Zm-2.85-2c-.06-3-1.67-4.67-4.17-4.67S79.57,15.86,79.28,19Z" transform="translate(-2.11 -1.68)"/><path class="cls-1" d="M108.08,19.94c0,5.62-3.69,7.94-6.91,7.94a5,5,0,0,1-4.81-3.09v2.88h-3v-21h3v8.12a5.41,5.41,0,0,1,4.88-2.74C104.36,12.06,108.08,14.41,108.08,19.94Zm-2.92,0c0-3.78-2.08-5.42-4.49-5.42s-4.47,1.67-4.47,5.42,2.12,5.47,4.47,5.47S105.16,23.75,105.16,19.94Z" transform="translate(-2.11 -1.68)"/><path class="cls-1" d="M126.17,19.94c0,5.86-4.29,7.94-6.91,7.94a4.31,4.31,0,0,1-3.87-1.78v7.22h-4.88V12.2h4.88v1.67a5,5,0,0,1,4-1.82C121.91,12.06,126.17,14.23,126.17,19.94Zm-4.77,0c0-2.83-1.51-4-3.21-4s-3,1.31-3,4,1.28,4,3,4S121.4,22.8,121.4,19.94Z" transform="translate(-2.11 -1.68)"/><path class="cls-1" d="M143.06,21.43H132.53c.3,2.05,1.34,2.85,3.27,2.85,1.55,0,2.39-.53,2.68-1.3h4.2c-.78,3.27-3.24,4.9-7.17,4.9-3.42,0-7.68-2.08-7.68-7.85s4.2-8,7.77-8c3.87,0,7.49,2.14,7.49,8.6A6.44,6.44,0,0,1,143.06,21.43Zm-4.64-2.95a2.63,2.63,0,0,0-2.82-2.82c-1.7,0-2.71.95-3,2.82Z" transform="translate(-2.11 -1.68)"/><path class="cls-1" d="M154.19,27.68l-2.95-4.59-3,4.59H143l5.5-8.1-5-7.38h5.32L151.24,16l2.38-3.84H159l-5,7.38,5.53,8.1Z" transform="translate(-2.11 -1.68)"/><path class="cls-1" d="M174.63,21.43H164.09a2.89,2.89,0,0,0,3.28,2.85c1.54,0,2.38-.53,2.68-1.3h4.19c-.77,3.27-3.24,4.9-7.17,4.9-3.42,0-7.68-2.08-7.68-7.85s4.2-8,7.77-8c3.87,0,7.5,2.14,7.5,8.6C174.65,20.92,174.65,21.19,174.63,21.43ZM170,18.48a2.64,2.64,0,0,0-2.83-2.82c-1.7,0-2.71.95-3,2.82Z" transform="translate(-2.11 -1.68)"/><path class="cls-1" d="M181.79,6.67v21h-4.88v-21Z" transform="translate(-2.11 -1.68)"/><path class="cls-1" d="M190.9,15.66c-1.13,0-2,.36-2,1.28,0,.62.51,1,1.34,1.19l2.83.59c2.76.63,4.79,1,4.79,4.29s-2.95,4.88-7,4.88-6.52-1.79-6.93-5.27h4.46c.3,1.1,1,1.7,2.53,1.7S193,23.66,193,23s-.3-.92-1.31-1.13l-2.44-.51c-3.72-.8-4.85-2.44-4.85-4.55,0-2.91,2.32-4.7,6.43-4.7,4.34,0,6.28,2.14,6.75,5.15h-4.4C192.92,16,192.15,15.66,190.9,15.66Z" transform="translate(-2.11 -1.68)"/></svg>