<svg width="284" height="273" viewBox="0 0 284 273" fill="none" xmlns="http://www.w3.org/2000/svg">
<rect width="284" height="273" fill="white"/>
<path d="M206.853 191.528C242.833 156.474 242.833 99.6393 206.853 64.5849C170.873 29.5304 112.538 29.5305 76.5588 64.5849C40.579 99.6393 40.579 156.474 76.5588 191.528C112.538 226.583 170.873 226.583 206.853 191.528Z" fill="#5C66C1"/>
<path d="M211.853 144.266C207.359 143.836 202.725 143.588 198.412 144.892C196.051 145.605 193.516 147.275 193.582 149.683C193.621 151.081 194.563 152.333 194.655 153.732C194.791 155.792 192.989 157.581 190.982 158.246C188.974 158.911 186.794 158.732 184.674 158.655C177.454 158.394 170.186 159.425 163.343 161.682C160.46 162.633 157.175 164.453 157.183 167.415C157.188 169.08 158.34 170.59 159.798 171.454C161.257 172.318 162.986 172.635 164.684 172.817C166.429 173.001 168.221 173.067 169.845 173.714C171.469 174.358 172.928 175.754 173.012 177.462C173.13 179.839 170.603 181.593 168.192 181.979C165.783 182.365 163.296 181.881 160.879 182.234C158.466 182.589 155.905 184.261 155.926 186.641C155.949 189.353 159.19 190.92 161.968 191.074C165.99 191.294 169.916 189.929 173.925 189.54C177.934 189.151 182.596 190.118 184.572 193.538C185.456 195.069 185.876 197.122 187.544 197.789C189.486 198.564 191.428 196.866 193.288 195.92C196.192 194.443 199.548 194.788 202.878 195.179C218.486 181.667 229.349 163.067 232.725 142.047C230.524 143.45 227.95 144.289 225.358 144.657C220.89 145.296 216.348 144.695 211.853 144.266Z" fill="#5C66C1"/>
<path d="M130.003 211.567C128.308 208.653 122.993 209.003 121.891 205.828C121.067 203.456 123.355 201.204 125.49 199.811C127.629 198.418 130.15 196.682 130.032 194.18C129.909 191.513 126.779 189.975 124.047 189.77C120.752 189.522 117.485 190.358 114.258 191.048C111.028 191.738 107.646 192.288 104.445 191.48C101.244 190.672 98.2768 188.165 97.9961 184.954C97.7967 182.661 98.9538 180.429 98.8961 178.126C98.8042 174.412 95.5036 171.385 91.8854 170.212C88.2673 169.041 84.3526 169.297 80.543 169.399C76.7307 169.499 72.7373 169.386 69.3973 167.594C66.0573 165.802 63.6566 161.825 64.9343 158.325C65.6296 156.416 67.2432 154.992 68.4528 153.343C69.6623 151.697 70.4704 149.412 69.3763 147.689C67.7785 145.171 63.1554 145.406 62.2214 142.589C61.7517 141.173 62.5493 139.624 63.6408 138.581C65.6322 136.684 68.6574 135.659 69.0903 132.642C69.358 130.782 68.6364 129.59 66.868 128.969C64.9474 128.292 62.6202 128.54 60.6156 128.271C60.1434 128.207 59.6763 128.133 59.2093 128.057H49.5723C49.5723 173.41 84.0955 210.908 128.935 216.964C130.271 215.31 131.016 213.311 130.003 211.567Z" fill="#5C66C1"/>
<path d="M155.76 86.0289C154.047 87.0847 152.407 88.3321 151.287 89.9809C150.167 91.6271 149.624 93.7335 150.222 95.6226C150.988 98.0434 153.522 100.147 152.83 102.588C152.329 104.357 150.353 105.247 148.6 105.914C144.84 107.341 141.081 108.767 137.321 110.191C135.568 110.855 133.781 111.54 132.325 112.701C130.869 113.864 129.775 115.607 129.893 117.438C130.077 120.275 133.065 122.249 135.954 122.642C138.845 123.036 141.76 122.325 144.672 122.175C146.412 122.085 148.233 122.215 149.747 123.059C151.258 123.903 152.371 125.608 152.035 127.274C151.709 128.892 150.219 129.986 149.02 131.15C147.821 132.313 146.792 134.094 147.611 135.539C148.524 137.152 150.92 137.039 152.754 136.589C157.82 135.347 163.175 133.223 168.066 135.012C171.718 136.349 174.247 139.613 177.637 141.492C181.604 143.693 186.505 143.818 190.942 142.773C195.379 141.727 199.462 139.608 203.471 137.481C206.59 135.828 209.804 134.069 211.893 131.272C213.981 128.473 214.611 124.327 212.383 121.633C210.481 119.335 207.217 118.744 204.397 117.665C201.576 116.587 198.659 114.122 199.304 111.239C199.834 108.874 202.424 107.652 204.557 106.407C206.291 105.395 207.936 104.112 208.899 102.381C209.862 100.648 210.027 98.3936 208.902 96.755C207.453 94.6461 204.515 94.1885 201.92 94.0096C199.322 93.8307 196.421 93.6031 194.694 91.7038C193.453 90.3362 193.01 88.4983 191.661 87.1895C190.404 85.9727 188.636 85.1802 187.091 84.3597C184.698 83.0892 182.381 82.3862 179.694 81.9184C171.44 80.4716 162.926 81.6091 155.76 86.0289Z" fill="#5C66C1"/>
<path d="M191.325 159.373C191.451 159.529 191.278 159.31 191.244 159.274C191.108 159.136 190.895 159.016 190.698 158.985C190.682 158.982 190.667 158.982 190.654 158.982C190.606 158.924 190.541 158.875 190.454 158.842C190.305 158.788 190.168 158.673 190.029 158.594C189.914 158.527 189.759 158.476 189.657 158.392C189.323 158.113 188.799 158.126 188.565 158.53C188.213 159.128 188.478 159.805 189.003 160.212C189.237 160.393 189.489 160.491 189.764 160.603C189.932 160.672 190.058 160.718 190.181 160.859C190.543 161.278 191.191 161.086 191.464 160.698C191.687 160.381 191.685 159.926 191.491 159.593C191.443 159.514 191.383 159.445 191.325 159.373Z" fill="#70C15C"/>
<path d="M195.631 161.579C195.492 161.145 194.836 160.963 194.487 161.268C194.448 161.278 194.411 161.291 194.371 161.309C193.899 161.536 193.857 162.198 194.198 162.546C194.261 162.712 194.356 162.868 194.489 162.991C194.925 163.397 195.67 163.466 196.158 163.1C196.394 162.924 196.591 162.702 196.578 162.387C196.568 162.167 196.491 161.963 196.329 161.804C196.124 161.608 195.872 161.541 195.631 161.579Z" fill="#70C15C"/>
<path d="M198.834 166.165C198.714 166.038 198.632 165.894 198.585 165.682C198.535 165.462 198.286 165.322 198.068 165.353C197.832 165.388 197.672 165.57 197.659 165.802C197.648 165.994 197.662 166.186 197.69 166.378C197.704 166.462 197.717 166.544 197.738 166.626C197.748 166.666 197.788 166.889 197.793 166.741C197.777 167.295 198.472 167.594 198.903 167.27C199.299 166.973 199.228 166.401 198.834 166.165Z" fill="#70C15C"/>
<path d="M183.016 156.354C182.853 156.4 182.717 156.51 182.675 156.689C182.614 156.953 182.756 157.229 183.034 157.303C183.27 157.367 183.535 157.298 183.688 157.109C183.85 156.904 183.848 156.641 183.688 156.439C183.525 156.237 183.2 156.206 183.016 156.354Z" fill="#70C15C"/>
<path d="M166.072 87.6522C166.597 87.7621 167.145 87.8388 167.604 88.0126C167.748 88.0893 167.924 88.1813 168.116 88.2861C168.423 88.5187 168.638 88.8562 168.701 89.3777C168.795 90.1778 168.625 90.8526 169.37 91.4099C170.338 92.1359 172.531 92.0285 172.773 90.62C172.854 90.1445 172.739 89.7049 172.497 89.301C172.531 89.2294 172.55 89.1476 172.537 89.0479C172.314 87.1588 170.223 87.0821 168.981 86.0162C168.465 85.5714 168.349 85.1905 168.116 84.5923C167.987 84.26 167.945 83.9609 167.667 83.6797C167.121 83.1327 166.15 82.9103 165.395 82.8873C164.125 82.8489 161.937 83.534 161.779 85.009C161.598 86.7319 164.812 87.3838 166.072 87.6522Z" fill="#70C15C"/>
<path d="M158.938 82.6674C159.158 82.6572 159.363 82.5754 159.528 82.4399C159.649 82.4757 159.777 82.4859 159.909 82.4706C160.171 82.4374 160.397 82.2993 160.53 82.0744C160.698 81.7957 160.656 81.5171 160.53 81.2359C160.328 80.7886 159.791 80.4793 159.297 80.4818C158.752 80.4844 158.279 80.8499 158.148 81.3663C158.093 81.5861 158.098 81.8264 158.172 82.0411C158.279 82.3428 158.581 82.6828 158.938 82.6674Z" fill="#70C15C"/>
<path d="M159.864 77.5932C159.94 77.5907 160.019 77.5728 160.092 77.5447C160.124 77.5498 160.158 77.5549 160.192 77.5549C160.654 77.5549 160.953 77.128 160.858 76.7011C160.767 76.2819 160.334 75.9496 159.893 75.97C159.596 75.9853 159.245 76.2307 159.287 76.5605C159.308 76.7215 159.303 76.8826 159.305 77.0436C159.31 77.3325 159.557 77.606 159.864 77.5932Z" fill="#70C15C"/>
<path d="M161.827 91.9671C161.989 91.87 162.11 91.7754 162.215 91.6144C162.375 91.369 162.286 91.0341 162.06 90.8654C161.813 90.6813 161.506 90.7197 161.278 90.9114C161.176 90.9983 161.113 91.1031 161.06 91.2207C160.963 91.438 160.95 91.7064 161.147 91.8828C161.328 92.0438 161.609 92.0975 161.827 91.9671Z" fill="#70C15C"/>
<path d="M166.116 93.6236C166.953 93.6236 166.953 92.3583 166.116 92.3583C165.279 92.3583 165.279 93.6236 166.116 93.6236Z" fill="#70C15C"/>
<path d="M161.394 124.667C160.465 124.667 160.465 126.073 161.394 126.073C162.322 126.073 162.322 124.667 161.394 124.667Z" fill="#70C15C"/>
<path d="M160.486 128.923C160.599 128.803 160.67 128.657 160.67 128.491C160.67 128.335 160.599 128.172 160.486 128.059C160.318 127.896 160.103 127.862 159.877 127.903C159.825 127.913 159.77 127.921 159.717 127.931C159.473 127.975 159.268 128.256 159.279 128.491C159.289 128.731 159.455 129.005 159.717 129.051C159.77 129.061 159.825 129.069 159.877 129.079C160.095 129.12 160.328 129.094 160.486 128.923Z" fill="#70C15C"/>
<path d="M160.381 131.469C159.751 131.469 159.751 132.423 160.381 132.423C161.011 132.42 161.011 131.469 160.381 131.469Z" fill="#70C15C"/>
<path d="M233.502 120.326C231.909 102.131 224.744 85.4819 213.677 72.0103C212.082 71.5068 210.489 71.0057 208.894 70.5021C207.805 70.1596 206.661 69.8145 205.535 69.8886C204.071 68.8815 202.358 68.1453 200.621 67.7235C198.792 67.2787 197.192 67.2838 195.736 65.9699C194.497 64.8528 193.388 63.8431 191.803 63.2065C190.36 62.6288 188.83 62.3604 187.29 62.1789C185.7 61.9898 183.874 61.6396 182.342 62.2531C181.638 62.5342 181.098 63.0072 180.471 63.411C179.765 63.8686 179.08 63.9197 178.291 64.1421C177.089 64.4796 176.231 65.2925 175.69 66.3763C175.213 67.3324 174.974 68.3753 174.567 69.3544C173.875 71.0211 172.647 71.5093 170.905 71.8186C167.877 72.3554 165.177 73.5645 163.687 76.356C163.207 77.2584 162.385 78.9097 163.251 79.8172C163.666 80.2518 164.227 80.2696 164.784 80.2236C165.87 80.1367 166.919 79.9373 168.016 79.9271C168.48 79.9245 168.945 79.9348 169.407 79.9654C170.254 80.0242 170.123 80.2773 170.427 80.9138C170.661 81.4046 171.046 81.7727 171.532 82.0335C172.531 82.5703 174.379 82.3709 174.948 83.4394C175.307 84.1117 175.229 84.7994 175.816 85.3924C176.307 85.8883 176.984 86.19 177.663 86.3433C178.511 86.5376 179.366 86.4737 180.227 86.4814C180.733 86.4865 181.271 86.4763 181.759 86.6373C182.473 86.875 183.446 87.7697 182.827 88.6082C182.515 88.759 182.216 88.9533 181.935 89.1961C181.911 89.2166 181.89 89.237 181.869 89.2575C180.458 89.7023 179.201 90.5714 177.978 91.3562C176.661 92.2023 175.357 93.0714 174.15 94.0658C172.783 95.1931 171.708 96.5684 170.425 97.7724C169.128 98.9892 167.683 99.5592 165.88 99.6743C164.264 99.7765 162.648 99.6334 161.042 99.8916C158.536 100.293 156.13 101.827 156.193 104.547C156.214 105.464 156.563 106.402 157.266 107.031C157.657 107.381 158.127 107.568 158.631 107.706C158.822 107.76 159.407 107.775 159.544 107.921C159.948 108.343 159.358 109.409 159.216 109.843C158.914 110.766 158.612 111.691 158.313 112.614C158.019 113.511 157.542 114.49 157.445 115.431C157.335 116.497 158.101 117.052 159.082 117.267C159.895 117.445 160.551 117.305 160.885 118.189C161.105 118.775 161.11 119.248 161.606 119.698C162.28 120.311 163.215 120.408 164.117 120.331C163.849 121.298 163.823 122.325 164.474 123.01C164.479 123.419 164.574 123.864 164.781 124.347C165.282 125.518 166.557 126.653 166.006 127.803C165.683 128.478 164.87 128.747 164.188 129.084C163.506 129.422 162.816 130.104 163.068 130.807C163.417 131.789 165.025 131.536 165.767 132.279C166.534 133.049 165.959 134.335 165.251 135.155C164.542 135.976 163.661 136.914 163.923 137.954C164.151 138.854 165.182 139.353 166.132 139.406C167.082 139.46 168.021 139.199 168.974 139.166C172.18 139.054 175.145 141.993 174.969 145.115C174.914 146.119 174.67 147.344 175.496 147.947C176.1 148.387 176.971 148.205 177.624 147.842C178.277 147.479 178.844 146.958 179.553 146.71C180.631 146.329 181.945 146.71 182.633 147.604C183.323 148.499 183.333 149.831 182.659 150.736C182.89 150.899 183.123 151.063 183.354 151.224C183.192 151.669 183.315 152.165 183.672 152.571C184.034 152.985 184.58 153.09 185.036 153.364C185.755 153.798 185.894 154.391 186.178 155.112C186.634 156.275 187.353 156.799 188.497 157.313C189.985 157.983 191.464 158.696 192.981 159.304C194.088 159.749 195.177 159.987 196.305 159.685C197.588 160.212 198.871 160.738 200.154 161.265C201.031 161.623 202.274 161.871 202.728 161.058C202.901 161.424 203.074 161.792 203.248 162.157C205.223 162.198 207.199 162.239 209.172 162.28C210.812 162.313 212.557 162.321 213.947 161.475C215.338 160.629 216.08 158.583 214.989 157.392C214.598 156.965 214.026 156.692 213.758 156.186C213.32 155.355 213.903 154.378 214.459 153.619C214.551 153.494 214.642 153.369 214.734 153.243C215.548 153.348 216.366 153.144 217.022 152.691C217.077 152.921 217.366 153.108 217.631 152.972C218.051 152.758 218.263 152.438 218.381 152.057C219.071 152.16 219.764 152.042 220.36 151.51C220.835 151.089 221.052 150.483 221 149.864C220.934 149.095 220.488 148.813 221.157 148.246C221.564 147.901 221.921 147.517 222.049 146.991C222.125 146.682 222.052 146.349 222.186 146.048C222.28 145.833 222.495 145.628 222.69 145.434C223.419 144.869 224.169 144.455 224.644 143.606C224.833 143.271 224.786 142.878 224.552 142.597C224.88 142.203 225.038 141.745 224.673 141.203C224.182 140.48 223.251 140.562 222.582 140.966C222.448 141.045 222.343 141.152 222.264 141.27C221.246 141.134 220.328 140.766 219.853 139.913C218.943 138.269 220.462 136.403 221.761 135.027C222.645 134.092 223.503 133.062 223.807 131.827C224.038 130.894 223.862 129.818 223.269 129.087C224.361 128.164 225.093 126.929 225.03 125.416C225.017 125.078 224.935 124.736 224.823 124.419C224.718 124.122 224.314 123.639 224.327 123.338C224.34 123.087 224.476 122.834 224.649 122.589C226.09 122.601 227.533 122.614 228.973 122.627C229.784 122.635 230.632 122.635 231.358 122.284C232.085 121.934 232.644 121.116 232.408 120.36C232.783 120.421 233.148 120.401 233.502 120.326Z" fill="#70C15C"/>
<path d="M57.071 132.993C59.6055 130.508 61.8777 127.244 65.425 126.674C67.3639 126.362 69.3475 126.95 71.3048 126.789C73.2621 126.628 75.4267 125.173 75.1171 123.284C74.9019 121.975 73.6189 121.126 72.8712 120.02C71.2129 117.566 72.4986 114.064 74.8573 112.233C77.2161 110.405 80.3173 109.828 83.2848 109.306C90.2771 108.079 97.2693 106.852 104.264 105.625C106.906 105.163 109.632 104.664 111.857 103.202C114.082 101.74 115.675 99.0275 114.956 96.5096C114.25 94.0428 111.637 92.4937 110.719 90.0934C109.674 87.3607 111.186 84.2012 113.516 82.3709C115.845 80.5406 118.829 79.7379 121.72 78.9787C129.749 76.8724 137.78 74.7685 145.809 72.6622C148.28 72.0154 150.825 71.3304 152.84 69.794C154.855 68.2552 156.22 65.6273 155.467 63.2423C154.48 60.1262 150.702 58.958 147.525 57.9253C144.35 56.89 140.729 54.6839 141.086 51.44C141.406 48.5515 144.812 46.7851 145.402 43.9374C145.858 41.7441 144.52 39.7604 142.657 38.2957C142.343 38.2931 142.025 38.2906 141.71 38.2906C90.8281 38.2906 49.5776 78.4802 49.5776 128.054C49.5776 130.712 49.6983 133.345 49.9291 135.945C52.3351 136.28 55.2107 134.82 57.071 132.993Z" fill="#5C66C1"/>
<path d="M122.688 132.824C123.265 132.755 123.814 132.282 123.801 131.717C123.782 130.955 122.88 130.534 122.106 130.436C121.332 130.339 120.458 130.362 119.894 129.838C119.734 129.322 119.201 129.02 118.713 128.77C117.435 128.113 115.148 126.311 113.647 126.359C112.933 126.382 111.931 127.072 112.002 127.862C112.065 128.563 113.127 129.135 113.584 128.379C113.484 129.059 113.387 129.741 113.287 130.421C115.35 129.406 118.021 129.713 119.781 131.168C120.224 131.533 120.613 131.963 121.077 132.303C121.539 132.64 122.111 132.89 122.688 132.824Z" fill="#FFBE55"/>
<path d="M124.792 133.806C125.519 134.427 126.621 134.478 127.553 134.537C128.689 134.608 129.827 134.677 130.963 134.749C131.383 134.774 131.934 134.705 132.016 134.304C132.071 134.023 131.837 133.772 131.606 133.599C130.016 132.389 125.968 131.623 124.792 133.806Z" fill="#FFBE55"/>
<path d="M126.587 129.123C126.587 129.123 126.589 129.123 126.587 129.123C126.592 129.125 126.594 129.127 126.594 129.127L126.587 129.123Z" fill="#FFBE55"/>
<path d="M127.19 129.447C127.002 129.327 126.805 129.209 126.598 129.125L127.185 129.445C126.957 129.388 126.742 129.294 126.59 129.123C126.443 129.064 126.288 129.025 126.128 129.02C125.732 129.007 125.296 129.294 125.309 129.68C125.325 130.148 125.9 130.367 126.369 130.467C126.857 130.572 127.343 130.679 127.831 130.784C128.161 130.856 128.565 130.904 128.783 130.654C129.009 130.39 128.849 129.961 128.555 129.767C128.264 129.575 127.891 129.549 127.542 129.506C127.424 129.496 127.306 129.475 127.19 129.447Z" fill="#FFBE55"/>
<path d="M119.416 133.841C119.036 133.946 118.768 134.348 118.823 134.728C119.128 135.084 119.448 135.452 119.886 135.631C120.324 135.81 120.914 135.725 121.151 135.327C121.371 134.953 121.195 134.45 120.857 134.169C120.518 133.89 120.064 133.79 119.624 133.737L119.742 133.821C119.634 133.811 119.524 133.813 119.416 133.841Z" fill="#FFBE55"/>
<path d="M108.192 157.604C107.833 157.362 107.379 157.311 106.946 157.267L107.258 157.231C106.738 157.009 106.056 157.277 105.838 157.789C105.623 158.3 105.915 158.959 106.447 159.156C106.794 159.284 107.179 159.23 107.544 159.174C107.922 159.115 108.347 159.028 108.541 158.709C108.767 158.346 108.549 157.847 108.192 157.604Z" fill="#FFBE55"/>
<path d="M102.853 157.293C102.632 157.224 102.362 157.275 102.212 157.451C101.976 157.732 102.076 158.203 102.386 158.405C102.695 158.606 103.144 158.545 103.419 158.3C103.695 158.054 103.802 157.661 103.742 157.303C103.446 157.298 103.149 157.295 102.853 157.293Z" fill="#FFBE55"/>
<path d="M104.647 154.928C104.183 154.79 103.54 154.754 103.359 155.191C103.199 155.577 103.616 155.999 104.044 156.027C104.469 156.053 104.862 155.823 105.222 155.6L104.873 155.961C105.012 156.153 105.358 156.081 105.463 155.869C105.568 155.657 105.469 155.393 105.293 155.235C105.112 155.074 104.876 154.997 104.647 154.928Z" fill="#FFBE55"/>
<path d="M139.38 143.44C139.304 143.435 139.228 143.433 139.152 143.435L139.268 143.476C139.202 143.507 139.144 143.548 139.105 143.609C138.926 143.885 139.066 144.271 139.32 144.483C139.575 144.695 139.913 144.78 140.236 144.869C140.558 144.959 140.894 145.069 141.115 145.316C141.149 144.514 140.535 143.762 139.763 143.517C139.666 143.438 139.519 143.415 139.38 143.44Z" fill="#FFBE55"/>
<path d="M138.368 141.321L138.334 141.341C138.787 141.226 139.244 141.111 139.698 140.996C139.48 140.534 139.063 140.104 138.543 140.089C138.021 140.074 137.531 140.682 137.822 141.106C137.937 141.278 138.16 141.344 138.368 141.321Z" fill="#FFBE55"/>
<path d="M122.552 126.032C122.798 126.032 123.034 125.82 123.021 125.574C123.011 125.326 122.814 125.117 122.552 125.117C122.305 125.117 122.069 125.329 122.082 125.574C122.093 125.822 122.287 126.032 122.552 126.032Z" fill="#FFBE55"/>
<path d="M123.882 127.873C123.782 127.589 123.57 127.433 123.263 127.41C123 127.392 122.756 127.604 122.686 127.837C122.662 127.919 122.657 128.021 122.675 128.108C122.686 128.177 122.709 128.243 122.751 128.307C122.751 128.312 122.751 128.32 122.772 128.34C122.777 128.345 122.777 128.353 122.783 128.358C122.796 128.374 122.811 128.384 122.825 128.397C122.974 128.57 123.247 128.662 123.46 128.596C123.759 128.501 123.992 128.182 123.882 127.873Z" fill="#FFBE55"/>
<path d="M120.794 128.161C120.938 128.115 121.04 128.018 121.096 127.893C121.329 127.711 121.337 127.336 121.127 127.131C121.03 127.037 120.888 126.98 120.752 126.98C120.55 126.98 120.406 127.085 120.293 127.236C120.13 127.453 120.159 127.719 120.261 127.952C120.34 128.128 120.615 128.22 120.794 128.161Z" fill="#FFBE55"/>
<path d="M135.332 135.388C135.377 135.367 135.419 135.347 135.461 135.327C135.699 135.214 135.715 134.874 135.542 134.705C135.369 134.537 135.02 134.552 134.904 134.785C134.883 134.826 134.862 134.869 134.841 134.91C134.689 135.232 135.004 135.541 135.332 135.388Z" fill="#FFBE55"/>
<path d="M134.101 137.451C134.516 137.451 134.519 136.822 134.101 136.822C133.687 136.819 133.687 137.451 134.101 137.451Z" fill="#FFBE55"/>
<path d="M131.583 136.497C131.955 136.497 131.958 135.932 131.583 135.932C131.21 135.932 131.207 136.497 131.583 136.497Z" fill="#FFBE55"/>
<path d="M136.623 136.753C137.2 136.753 137.203 135.879 136.623 135.879C136.046 135.879 136.043 136.753 136.623 136.753Z" fill="#FFBE55"/>
<path d="M139.249 136.899C139.884 136.899 139.884 135.938 139.249 135.938C138.614 135.938 138.612 136.899 139.249 136.899Z" fill="#FFBE55"/>
<g opacity="0.15">
<path opacity="0.15" d="M200.642 59.0603C213.95 74.6229 221.958 94.641 221.958 116.479C221.958 166.056 180.707 206.243 129.825 206.243C107.407 206.243 86.8636 198.441 70.8902 185.475C87.7898 205.241 113.24 217.82 141.708 217.82C192.59 217.82 233.84 177.63 233.84 128.057C233.84 100.321 220.929 75.5252 200.642 59.0603Z" fill="#19746B"/>
</g>
<g opacity="0.05">
<path opacity="0.05" d="M146.247 42.7155C170.535 42.7155 192.627 51.872 209.085 66.8339C192.267 49.2723 168.305 38.2931 141.708 38.2931C90.8254 38.2931 49.5749 78.4828 49.5749 128.057C49.5749 153.969 60.8439 177.316 78.869 193.701C63.5123 177.666 54.114 156.142 54.114 132.479C54.114 82.9051 95.3645 42.7155 146.247 42.7155Z" fill="#19746B"/>
</g>
<g opacity="0.3">
<path opacity="0.3" d="M186.264 49.4768C193.574 62.3425 197.743 77.1408 197.743 92.8874C197.743 142.461 156.492 182.651 105.61 182.651C89.448 182.651 74.2591 178.591 61.0538 171.467C76.7569 199.106 106.988 217.82 141.708 217.82C192.593 217.82 233.84 177.63 233.84 128.057C233.84 94.2294 214.632 64.7761 186.264 49.4768Z" fill="#640505"/>
</g>
<path d="M95.8476 112.423L93.2248 115.167L108.888 125.476L111.511 122.732L95.8476 112.423Z" fill="#0E538C"/>
<path d="M139.832 99.917L113.598 125.552L92.0491 111.368L116.164 84.3386C120.56 79.4354 126.961 75.7947 134.765 73.9139C135.158 73.8089 135.583 73.7248 135.993 73.6311L148.207 71L147.9 81.4685L147.847 82.5244C147.4 89.2471 144.604 95.2589 139.832 99.917Z" fill="#F2F2F2"/>
<path d="M147.847 82.5244C145.496 81.2797 143.224 79.9354 141.04 78.4967C138.854 77.0595 136.76 75.5296 134.765 73.9131C135.158 73.808 135.583 73.7239 135.993 73.6302L148.207 71L147.9 81.4685L147.847 82.5244Z" fill="#FFBE55"/>
<path d="M132.973 92.7565C133.47 93.9569 133.526 95.2525 133.136 96.4796C132.745 97.7068 131.925 98.8102 130.779 99.6504C129.632 100.491 128.211 101.03 126.695 101.2C125.18 101.37 123.637 101.163 122.263 100.605C120.889 100.048 119.745 99.1646 118.976 98.0675C118.207 96.9705 117.847 95.7088 117.943 94.442C118.038 93.1753 118.584 91.9604 119.511 90.9511C120.438 89.9418 121.705 89.1833 123.152 88.7717C125.091 88.2208 127.215 88.331 129.056 89.0781C130.897 89.8252 132.306 91.1482 132.973 92.7565Z" fill="#2A94F4"/>
<path d="M128.159 100.899C129.605 100.488 130.871 99.7302 131.797 98.7216C132.724 97.7131 133.269 96.4992 133.364 95.2335C133.459 93.9678 133.099 92.7072 132.331 91.6111C131.562 90.515 130.419 89.6326 129.046 89.0756C127.673 88.5186 126.132 88.312 124.618 88.4819C123.103 88.6518 121.684 89.1905 120.538 90.03C119.393 90.8695 118.573 91.9721 118.183 93.1981C117.793 94.4242 117.849 95.7188 118.346 96.9182C119.014 98.5244 120.421 99.8454 122.261 100.592C124.1 101.338 126.221 101.449 128.159 100.899V100.899ZM135.429 92.056C136.092 93.66 136.167 95.3911 135.644 97.0303C135.121 98.6695 134.024 100.143 132.492 101.265C130.959 102.387 129.06 103.106 127.035 103.332C125.01 103.558 122.95 103.281 121.114 102.535C119.279 101.789 117.752 100.609 116.725 99.1425C115.699 97.6763 115.22 95.9903 115.348 94.298C115.477 92.6057 116.207 90.983 117.447 89.6352C118.687 88.2875 120.381 87.2752 122.314 86.7263C124.905 85.9934 127.741 86.1428 130.199 87.1419C132.658 88.1409 134.538 89.9081 135.429 92.056Z" fill="#FFBE55"/>
<path d="M131.507 91.3232C130.713 90.4123 129.626 89.705 128.37 89.2822L128.153 89.2121C127.205 88.925 126.196 88.8057 125.19 88.8619L125.308 90.3565C126.053 90.3159 126.8 90.4035 127.503 90.6139L127.721 90.684C128.653 91.0016 129.459 91.5282 130.05 92.2049L131.507 91.3232Z" fill="white"/>
<path d="M120.614 99.1254C120.682 99.1815 120.753 99.2358 120.825 99.2892L121 99.417C122.107 100.192 123.469 100.673 124.91 100.798L125.053 99.6657C123.893 99.5655 122.796 99.1801 121.902 98.5589L121.723 98.4311L121.568 98.3111L120.614 99.1254Z" fill="white"/>
<path d="M95.835 110.204C90.4009 115.889 85.8827 120.425 83.8874 119.112C81.8921 117.798 83.1762 111.135 88.6103 105.452C94.0444 99.77 101.569 97.2106 103.566 98.5231C105.564 99.8356 101.269 104.52 95.835 110.204Z" fill="#FFBE55"/>
<path d="M114.117 122.237C108.683 127.923 104.391 132.606 106.387 133.919C108.382 135.233 115.907 132.678 121.342 126.993C126.776 121.308 128.06 114.647 126.065 113.334C124.069 112.02 119.551 116.553 114.117 122.237Z" fill="#FFBE55"/>
<path d="M79.5102 187.289C79.5693 183.947 79.8267 180.657 80.1876 177.424C81.0655 177.3 81.6595 182.599 82.4034 182.057C83.3869 181.341 84.6193 177.694 83.1516 173.27C82.6577 171.782 81.955 170.695 81.3082 169.773C81.4759 168.866 81.6543 167.963 81.8716 167.073C82.089 166.182 82.2589 165.295 82.4667 164.415C83.0998 165.339 83.7161 166.469 84.5824 165.74C85.8686 164.657 85.8433 158.736 87.1306 151.224C87.7637 149.587 89.09 145.731 89.7685 144.158C93.4394 135.782 96.4878 130.873 100.99 124.626C102.153 122.992 103.323 121.433 104.499 119.949C103.497 119.298 102.484 118.648 101.461 118L101.189 118.287C99.8992 119.671 98.69 121.177 97.37 122.701C92.283 128.887 83.4248 133.838 79.1788 142.417C78.1237 144.563 77.1624 146.795 76.1558 149.058C75.9226 149.662 75.6852 150.277 75.4488 150.888C69.9946 157.289 68.0204 167.183 68.0004 170.208C67.9603 175.98 71.1026 172.298 71.4086 178.567C71.4909 180.248 71.2535 181.55 70.8736 182.637C73.5358 183.904 76.0387 185.138 78.5415 186.735C78.8527 186.933 79.176 187.118 79.5102 187.289V187.289Z" fill="#FFF4FA"/>
</svg>
