<svg xmlns="http://www.w3.org/2000/svg" viewBox="0 0 300 300"><defs><style>.cls-1{fill:#2a94f4;}.cls-2{opacity:0.05;}.cls-3{fill:#fff;}.cls-4,.cls-6{opacity:0.06;}.cls-5,.cls-6{fill:#f1f2f2;}</style></defs><title>Social Media Icons Recolored</title><g id="Layer_1" data-name="Layer 1"><circle class="cls-1" cx="150" cy="133.57" r="108.42"/><path class="cls-2" d="M163.53,241.16a108.44,108.44,0,0,0,0-215.18s67.81,25.65,67.81,107.59S163.53,241.16,163.53,241.16Z"/><ellipse class="cls-2" cx="155.26" cy="264.28" rx="80.68" ry="5.36"/><path class="cls-3" d="M174.86,137.09h-16v58.75h-24.3V137.09H123V116.44h11.55V103.08c0-9.55,4.54-24.52,24.52-24.52l18,.08v20H164c-2.15,0-5.16,1.07-5.16,5.62v12.16H177Zm0,0"/><g class="cls-4"><path class="cls-5" d="M77.64,75.7a3,3,0,0,1-1.26-.28,3,3,0,0,1-1.47-4c.43-.93,10.79-22.79,40-31.25A3,3,0,1,1,116.6,46C90.11,53.63,80.45,73.76,80.36,74A3,3,0,0,1,77.64,75.7Z"/></g><circle class="cls-6" cx="73.85" cy="81" r="3.02"/></g></svg>