<svg width="100" height="19" viewBox="0 0 100 19" fill="none" xmlns="http://www.w3.org/2000/svg">
<path d="M12.7698 18.7264C10.724 18.7264 8.78477 18.071 7.16362 16.8306C7.04073 16.7367 7.01722 16.5598 7.1112 16.437C7.20518 16.3142 7.3823 16.2907 7.50519 16.3846C9.02694 17.5492 10.8469 18.1649 12.7698 18.1649C14.6928 18.1649 16.5128 17.5492 18.0345 16.3846C18.217 16.2456 18.3942 16.0976 18.564 15.9459C19.1478 15.4223 19.6557 14.8228 20.0768 14.1656C20.1707 14.0194 20.2593 13.8713 20.3406 13.7268C20.6569 13.1635 20.9081 12.5659 21.0888 11.9466C21.1304 11.8039 21.1702 11.6559 21.2063 11.506C21.3437 10.9264 21.4214 10.327 21.4358 9.72572C21.4376 9.6535 21.4377 9.57948 21.4377 9.50545C21.4377 9.43142 21.4358 9.3592 21.4358 9.28517C21.4214 8.68572 21.3437 8.08628 21.2063 7.50489C21.1702 7.35503 21.1322 7.20878 21.0907 7.06614C20.9099 6.44683 20.6569 5.84918 20.3424 5.28585C20.2611 5.1396 20.1725 4.99154 20.0786 4.8471C19.6575 4.18807 19.1496 3.59043 18.5659 3.06682C18.396 2.91334 18.2189 2.76709 18.0363 2.62807C16.576 1.51223 14.832 0.896534 12.9922 0.851395L12.7717 0.845978L12.5512 0.851395C10.7113 0.898339 8.96549 1.51223 7.507 2.62807C7.38411 2.72195 7.20699 2.69848 7.11301 2.5757C7.01903 2.45292 7.04252 2.27598 7.16542 2.18209C8.6474 1.0482 10.4041 0.400001 12.2638 0.300695V0.273613H13.2795V0.300695C15.1392 0.401807 16.8959 1.0482 18.3779 2.18209C18.5713 2.33015 18.761 2.48723 18.9418 2.64973C19.5617 3.20584 20.1039 3.84501 20.5521 4.54376C20.6515 4.69904 20.7454 4.85613 20.8322 5.01141C21.1684 5.60905 21.4358 6.24822 21.6292 6.90725C21.6744 7.05891 21.716 7.21599 21.7539 7.37488C21.9003 7.99419 21.9816 8.63155 21.9979 9.27072C21.9997 9.34836 22.0015 9.42601 22.0015 9.50545C22.0015 9.58309 21.9997 9.66073 21.9979 9.73836C21.9816 10.3775 21.9003 11.0149 21.7539 11.6342C21.716 11.7931 21.6744 11.952 21.6292 12.1018C21.4358 12.7609 21.1684 13.3982 20.8322 13.9977C20.7454 14.153 20.6515 14.31 20.5521 14.4653C20.1039 15.1659 19.5635 15.8032 18.9418 16.3594C18.761 16.5219 18.5713 16.6789 18.3779 16.827C16.7549 18.071 14.8175 18.7264 12.7698 18.7264Z" fill="white"/>
<path d="M16.3338 14.218C16.1278 14.886 15.8802 15.4909 15.5965 16.0181H16.4983C16.6627 15.8357 16.8218 15.6407 16.9754 15.4349C17.2537 15.0575 17.5013 14.6495 17.7182 14.218H16.3338Z" fill="white"/>
<path d="M17.3278 16.464H16.6881C16.3989 16.7638 16.0917 17.0328 15.7663 17.2639C15.8477 17.2332 15.929 17.2007 16.0085 17.1664C16.4712 16.9696 16.9122 16.7367 17.3278 16.464Z" fill="white"/>
<path d="M18.508 11.9736H16.8272C16.7387 12.6056 16.6158 13.2086 16.4621 13.7737H17.9242C18.1718 13.2068 18.367 12.6037 18.508 11.9736Z" fill="white"/>
<path d="M15.338 16.464C15.0976 16.845 14.8374 17.1754 14.5591 17.4426C15.085 17.2151 15.5874 16.8865 16.0519 16.464H15.338Z" fill="white"/>
<path d="M12.9921 16.0181H13.7946C13.8343 15.8845 13.8741 15.7418 13.9121 15.5883C14.0187 15.1659 14.1145 14.7073 14.1958 14.218H12.9939V16.0181H12.9921Z" fill="white"/>
<path d="M14.1217 17.2404C14.3621 17.031 14.5898 16.771 14.8049 16.4622H14.1217C13.9699 16.9172 13.8036 17.2982 13.6265 17.5907C13.7946 17.5004 13.959 17.3849 14.1217 17.2404Z" fill="white"/>
<path d="M18.7755 9.72931H16.9971C16.9899 10.3468 16.9519 10.9499 16.8851 11.5294H18.6002C18.7032 10.9462 18.7628 10.3432 18.7755 9.72931Z" fill="white"/>
<path d="M18.5984 7.4832H16.8832C16.9501 8.06278 16.9881 8.66583 16.9953 9.28333H18.7737C18.7628 8.66944 18.7032 8.06639 18.5984 7.4832Z" fill="white"/>
<path d="M19.6267 14.218H18.2098C17.8953 14.886 17.5158 15.4909 17.0838 16.0181H17.9441C18.1917 15.8213 18.4285 15.61 18.6544 15.3843C19.0158 15.0232 19.3412 14.6332 19.6267 14.218Z" fill="white"/>
<path d="M20.7183 11.9736H18.9616C18.8261 12.6074 18.6381 13.2086 18.405 13.7737H19.9123C20.1111 13.4433 20.2846 13.1003 20.4364 12.7428C20.5448 12.49 20.6388 12.2336 20.7183 11.9736Z" fill="white"/>
<path d="M21.087 9.72931H19.2183C19.2074 10.3468 19.1478 10.9499 19.0466 11.5294H20.8412C20.9912 10.9426 21.0725 10.3414 21.087 9.72931Z" fill="white"/>
<path d="M20.7183 7.03902C20.637 6.77902 20.543 6.52263 20.4364 6.26986C20.2846 5.91236 20.1111 5.5675 19.9123 5.23889H18.405C18.6381 5.80403 18.8261 6.40708 18.9616 7.03902H20.7183Z" fill="white"/>
<path d="M19.0484 7.4832C19.1496 8.06278 19.2074 8.66583 19.2201 9.28333H21.0888C21.0725 8.67125 20.9912 8.0682 20.8448 7.4832H19.0484Z" fill="white"/>
<path d="M12.9921 16.464V17.69C13.1674 17.5203 13.406 17.161 13.6518 16.464H12.9921Z" fill="white"/>
<path d="M17.9423 2.99458H17.082C17.514 3.52181 17.8935 4.12847 18.208 4.79472H19.6249C19.3375 4.37945 19.014 3.98945 18.6526 3.62834C18.4285 3.40264 18.1899 3.19139 17.9423 2.99458Z" fill="white"/>
<path d="M12.9921 13.7737H14.2645C14.3476 13.205 14.4127 12.6019 14.4597 11.9736H12.9921V13.7737Z" fill="white"/>
<path d="M16.4368 7.4832H14.935C14.9693 8.06278 14.991 8.66583 14.9928 9.28333H16.5489C16.5435 8.66944 16.5055 8.06639 16.4368 7.4832Z" fill="white"/>
<path d="M12.9921 11.5294H14.4886C14.5247 10.9462 14.5446 10.3432 14.5482 9.72931H12.9921V11.5294Z" fill="white"/>
<path d="M18.508 7.03902C18.367 6.40889 18.1718 5.80584 17.9242 5.23889H16.4621C16.614 5.80403 16.7387 6.40708 16.8272 7.03902H18.508Z" fill="white"/>
<path d="M16.379 11.9736H14.9061C14.8591 12.6056 14.794 13.2086 14.7145 13.7737H16.0031C16.1621 13.2068 16.2886 12.6037 16.379 11.9736Z" fill="white"/>
<path d="M15.0868 16.0181C15.1808 15.8574 15.2711 15.6859 15.3579 15.5053C15.5495 15.1081 15.7211 14.6766 15.8675 14.218H14.644C14.5356 14.886 14.4054 15.4909 14.2554 16.0181H15.0868Z" fill="white"/>
<path d="M15.0868 2.99458H14.2572C14.4073 3.52181 14.5374 4.12847 14.6458 4.79472H15.8694C15.7212 4.33611 15.5513 3.90458 15.3597 3.50736C15.2711 3.3268 15.1808 3.15528 15.0868 2.99458Z" fill="white"/>
<path d="M16.379 7.03902C16.2886 6.40889 16.1621 5.80584 16.0031 5.23889H14.7145C14.7958 5.80403 14.8609 6.40708 14.9061 7.03902H16.379Z" fill="white"/>
<path d="M16.4965 2.99458H15.5946C15.8784 3.52181 16.126 4.12847 16.332 4.79472H17.7146C17.4977 4.3632 17.2501 3.95514 16.9718 3.57778C16.8218 3.37014 16.6627 3.17514 16.4965 2.99458Z" fill="white"/>
<path d="M16.5507 9.72931H14.9946C14.991 10.3468 14.9711 10.9499 14.9368 11.5294H16.4386C16.5055 10.9462 16.5435 10.3432 16.5507 9.72931Z" fill="white"/>
<path d="M12.9921 7.03902H14.4597C14.4127 6.41069 14.3476 5.80764 14.2645 5.23889H12.9921V7.03902Z" fill="white"/>
<path d="M12.9921 4.79472H14.194C14.1127 4.30542 14.0187 3.84681 13.9102 3.42431C13.8723 3.27083 13.8325 3.12819 13.7928 2.99458H12.9903V4.79472H12.9921Z" fill="white"/>
<path d="M16.0085 1.84625C15.929 1.81195 15.8477 1.77945 15.7663 1.74876C16.0917 1.97987 16.3989 2.24889 16.6881 2.54861H17.3278C16.9122 2.27598 16.4712 2.04306 16.0085 1.84625Z" fill="white"/>
<path d="M12.9921 9.28333H14.5482C14.5446 8.66944 14.5247 8.06639 14.4886 7.4832H12.9921V9.28333Z" fill="white"/>
<path d="M12.9921 2.55042H13.6518C13.406 1.85347 13.1674 1.49236 12.9921 1.32444V2.55042Z" fill="white"/>
<path d="M15.338 2.55042H16.0537C15.5892 2.12792 15.0868 1.79931 14.5609 1.57181C14.8374 1.83903 15.0976 2.16764 15.338 2.55042Z" fill="white"/>
<path d="M14.1217 1.77222C13.959 1.62958 13.7928 1.51222 13.6265 1.42194C13.8036 1.71445 13.9699 2.09361 14.1217 2.55042H14.8049C14.5898 2.24167 14.3621 1.98167 14.1217 1.77222Z" fill="white"/>
<path d="M9.74806 4.79472C9.95409 4.12667 10.2017 3.52181 10.4854 2.99458H9.58359C9.41912 3.17694 9.26009 3.37195 9.10647 3.57778C8.82815 3.95514 8.58054 4.3632 8.36366 4.79472H9.74806Z" fill="white"/>
<path d="M12.5475 9.72931H10.9915C10.9951 10.3432 11.015 10.9462 11.0511 11.5294H12.5475V9.72931Z" fill="white"/>
<path d="M12.5475 7.4832H11.0511C11.015 8.06639 10.9951 8.66944 10.9915 9.28333H12.5475V7.4832Z" fill="white"/>
<path d="M8.989 9.28333H10.5469C10.5505 8.66583 10.5704 8.06278 10.6047 7.4832H9.10286C9.03599 8.06639 8.99803 8.66944 8.989 9.28333Z" fill="white"/>
<path d="M12.5475 16.464H11.8879C12.1337 17.161 12.3722 17.5221 12.5475 17.69V16.464Z" fill="white"/>
<path d="M12.5475 2.99458H11.7451C11.7054 3.12819 11.6656 3.27083 11.6276 3.42431C11.521 3.84681 11.4252 4.30542 11.3439 4.79472H12.5457V2.99458H12.5475Z" fill="white"/>
<path d="M12.5475 11.9736H11.08C11.127 12.6019 11.1921 13.205 11.2752 13.7737H12.5475V11.9736Z" fill="white"/>
<path d="M11.418 17.2404C11.5807 17.3831 11.7469 17.5004 11.9132 17.5907C11.7361 17.2982 11.5698 16.919 11.418 16.4622H10.7348C10.9499 16.771 11.1794 17.031 11.418 17.2404Z" fill="white"/>
<path d="M12.5475 14.218H11.3457C11.427 14.7073 11.521 15.1659 11.6294 15.5883C11.6674 15.7418 11.7072 15.8845 11.7469 16.0181H12.5493V14.218H12.5475Z" fill="white"/>
<path d="M7.6769 13.7737C7.44376 13.2086 7.25579 12.6056 7.12025 11.9736H5.36357C5.4449 12.2336 5.53888 12.49 5.64551 12.7428C5.79732 13.1003 5.97082 13.4451 6.16962 13.7737H7.6769Z" fill="white"/>
<path d="M5.78285 16.4676H6.64313C6.21118 15.9404 5.83165 15.3337 5.51718 14.6675H4.10027C4.38763 15.0828 4.71113 15.4728 5.07259 15.8339C5.29669 16.0596 5.53526 16.2708 5.78285 16.4676Z" fill="white"/>
<path d="M4.66234 11.5294C4.56113 10.9499 4.50329 10.3468 4.49064 9.72931H2.6219C2.63817 10.3414 2.71949 10.9444 2.86588 11.5294H4.66234Z" fill="white"/>
<path d="M3.3177 7.93639H5.07439C5.20994 7.30265 5.3979 6.70139 5.63104 6.13625H4.12376C3.92496 6.46667 3.75145 6.80973 3.59964 7.16723C3.4912 7.42 3.39722 7.67639 3.3177 7.93639Z" fill="white"/>
<path d="M5.1015 4.79472H6.51842C6.83289 4.12667 7.21242 3.52181 7.64436 2.99458H6.78409C6.53649 3.19139 6.29974 3.40264 6.07383 3.62834C5.71237 3.98945 5.38886 4.37945 5.1015 4.79472Z" fill="white"/>
<path d="M5.53706 9.28333H7.4058C7.41665 8.66583 7.47629 8.06278 7.5775 7.4832H5.78285C5.63466 8.07001 5.55333 8.67125 5.53706 9.28333Z" fill="white"/>
<path d="M12.5475 1.32263C12.3722 1.49236 12.1337 1.85167 11.8879 2.54861H12.5475V1.32263Z" fill="white"/>
<path d="M12.5475 5.23889H11.2752C11.1921 5.80764 11.127 6.41069 11.08 7.03902H12.5475V5.23889Z" fill="white"/>
<path d="M3.28337 3.89194C3.18939 4.05264 3.09902 4.22417 3.01227 4.40472C2.8207 4.80194 2.64901 5.23347 2.50262 5.69208H3.72616C3.83459 5.02402 3.96471 4.41917 4.11472 3.89194H3.28337Z" fill="white"/>
<path d="M11.915 1.42194C11.7469 1.51222 11.5825 1.62778 11.4198 1.77222C11.1794 1.98167 10.9517 2.24167 10.7366 2.55042H11.4198C11.5698 2.09361 11.7361 1.71445 11.915 1.42194Z" fill="white"/>
<path d="M10.2017 2.55042C10.4421 2.16945 10.7023 1.83903 10.9806 1.57181C10.4529 1.79931 9.95228 2.12792 9.48781 2.55042H10.2017Z" fill="white"/>
<path d="M10.4529 16.0181H11.2825C11.1324 15.4909 11.0023 14.8842 10.8939 14.218H9.67035C9.81855 14.6766 9.98842 15.1081 10.18 15.5053C10.2686 15.6859 10.3589 15.8574 10.4529 16.0181Z" fill="white"/>
<path d="M10.827 5.23889H9.5384C9.37936 5.80584 9.25286 6.40889 9.16249 7.03902H10.6354C10.6824 6.40708 10.7475 5.80403 10.827 5.23889Z" fill="white"/>
<path d="M9.10466 11.5294H10.6065C10.5722 10.9499 10.5505 10.3468 10.5487 9.72931H8.99261C8.99804 10.3432 9.03599 10.9462 9.10466 11.5294Z" fill="white"/>
<path d="M10.827 13.7737C10.7457 13.2086 10.6806 12.6056 10.6354 11.9736H9.16249C9.25286 12.6037 9.37936 13.2068 9.5384 13.7737H10.827Z" fill="white"/>
<path d="M7.03169 7.03902H8.71247C8.80103 6.40708 8.92393 5.80403 9.07755 5.23889H7.61545C7.36966 5.80584 7.17266 6.40889 7.03169 7.03902Z" fill="white"/>
<path d="M8.21185 2.55042H8.85163C9.1408 2.2507 9.44803 1.98167 9.77335 1.75056C9.69202 1.78125 9.6107 1.81375 9.53117 1.84806C9.06851 2.04306 8.62934 2.27598 8.21185 2.55042Z" fill="white"/>
<path d="M9.04321 16.0181H9.94505C9.66131 15.4909 9.41371 14.8842 9.20768 14.218H7.82509C8.04197 14.6495 8.28956 15.0575 8.56789 15.4349C8.7197 15.6425 8.87875 15.8375 9.04321 16.0181Z" fill="white"/>
<path d="M9.53117 17.1664C9.6107 17.2007 9.69202 17.2332 9.77335 17.2639C9.44803 17.0328 9.1408 16.7638 8.85163 16.464H8.21185C8.62934 16.7367 9.06851 16.9696 9.53117 17.1664Z" fill="white"/>
<path d="M3.41168 14.218C3.25987 13.6528 3.13516 13.0497 3.04661 12.4178H1.36584C1.50681 13.0479 1.70199 13.651 1.94959 14.218H3.41168Z" fill="white"/>
<path d="M10.2017 16.464H9.48599C9.95047 16.8865 10.4529 17.2151 10.9788 17.4426C10.7041 17.1736 10.4439 16.845 10.2017 16.464Z" fill="white"/>
<path d="M6.94314 11.5294H8.65825C8.59138 10.9499 8.55343 10.3468 8.5462 9.72931H6.76784C6.77687 10.3432 6.83651 10.9462 6.94314 11.5294Z" fill="white"/>
<path d="M0.426041 8.65501H2.20442C2.21165 8.03751 2.2496 7.43444 2.31647 6.85486H0.601342C0.49652 7.43805 0.436884 8.04112 0.426041 8.65501Z" fill="white"/>
<path d="M35.1062 13.3657H33.7561L31.6416 7.40375L29.5415 13.3657H28.1915L25.9125 5.57653H27.4414L29.0463 11.4789L31.0416 5.57653H32.2561L34.2513 11.4789L35.8562 5.57653H37.3852L35.1062 13.3657Z" fill="white"/>
<path d="M45.1077 9.99473H39.319C39.469 11.6269 40.3383 12.3167 41.6576 12.3167C42.5721 12.3167 43.1124 12.0621 43.5028 11.4626H44.8673C44.298 12.8565 43.2335 13.4704 41.569 13.4704C39.6949 13.4704 37.8659 12.2571 37.8659 9.50001C37.8659 6.69959 39.7256 5.50069 41.569 5.50069C43.4576 5.50069 45.1221 6.69959 45.1221 9.60473C45.1239 9.74015 45.1239 9.85931 45.1077 9.99473ZM43.6691 9.00528C43.6384 7.49223 42.8287 6.65264 41.569 6.65264C40.369 6.65264 39.469 7.4164 39.319 9.00528H43.6691Z" fill="white"/>
<path d="M53.8351 9.46931C53.8351 12.3004 51.9754 13.4686 50.3561 13.4686C48.9771 13.4686 48.1819 12.5839 47.9271 11.9104V13.3639H46.4126V2.78695H47.9271V6.87652C48.3319 6.09833 49.2464 5.4989 50.3868 5.4989C51.961 5.5007 53.8351 6.68334 53.8351 9.46931ZM52.3658 9.46931C52.3658 7.56625 51.3158 6.74291 50.1013 6.74291C48.9175 6.74291 47.8512 7.5825 47.8512 9.46931C47.8512 11.3417 48.9157 12.2264 50.1013 12.2264C51.3158 12.2264 52.3658 11.3868 52.3658 9.46931Z" fill="white"/>
<path d="M62.9529 9.46931C62.9529 12.4196 60.7932 13.4686 59.4739 13.4686C58.1997 13.4686 57.6286 12.7789 57.5238 12.5694V16.2094H55.0641V5.57292H57.5238V6.4125C57.719 6.11278 58.4383 5.49889 59.519 5.49889C60.8076 5.5007 62.9529 6.59306 62.9529 9.46931ZM60.5528 9.46931C60.5528 8.04653 59.7883 7.46153 58.9335 7.46153C58.0642 7.46153 57.419 8.12056 57.419 9.46931C57.419 10.8469 58.0642 11.506 58.9335 11.506C59.7883 11.5078 60.5528 10.9083 60.5528 9.46931Z" fill="white"/>
<path d="M71.4689 10.2186H66.1608C66.3108 11.2514 66.835 11.6576 67.8109 11.6576C68.5898 11.6576 69.0109 11.3886 69.1609 10.9986H71.2755C70.8851 12.6471 69.6417 13.4704 67.6609 13.4704C65.9367 13.4704 63.7915 12.4214 63.7915 9.51626C63.7915 6.58043 65.906 5.50069 67.7061 5.50069C69.6562 5.50069 71.4851 6.57862 71.4851 9.83042C71.4833 9.96404 71.4833 10.0994 71.4689 10.2186ZM69.1302 8.73626C69.0995 7.91292 68.6495 7.31348 67.7061 7.31348C66.8512 7.31348 66.3416 7.79376 66.1771 8.73626H69.1302Z" fill="white"/>
<path d="M77.0769 13.3657L75.5931 11.0582L74.0931 13.3657H71.4381L74.2123 9.29056L71.693 5.57472H74.3768L75.5913 7.50667L76.7914 5.57472H79.4752L76.9558 9.29056L79.7445 13.3657H77.0769Z" fill="white"/>
<path d="M87.3785 10.2186H82.0704C82.2204 11.2514 82.7446 11.6576 83.7205 11.6576C84.4994 11.6576 84.9205 11.3886 85.0705 10.9986H87.1851C86.7947 12.6471 85.5513 13.4704 83.5705 13.4704C81.8463 13.4704 79.7011 12.4214 79.7011 9.51626C79.7011 6.58043 81.8156 5.50069 83.6157 5.50069C85.5658 5.50069 87.3947 6.57862 87.3947 9.83042C87.3929 9.96404 87.3929 10.0994 87.3785 10.2186ZM85.0398 8.73626C85.0091 7.91292 84.5591 7.31348 83.6157 7.31348C82.7608 7.31348 82.2512 7.79376 82.0867 8.73626H85.0398Z" fill="white"/>
<path d="M90.9912 2.78875V13.3657H88.5315V2.78875H90.9912Z" fill="white"/>
<path d="M95.5799 7.31348C95.0106 7.31348 94.5896 7.49404 94.5896 7.95806C94.5896 8.27223 94.8444 8.45279 95.2637 8.55751L96.6878 8.85723C98.083 9.17139 99.1024 9.35195 99.1024 11.0149C99.1024 12.6778 97.6186 13.4722 95.5492 13.4722C93.4943 13.4722 92.2654 12.5731 92.0557 10.8199H94.3058C94.4558 11.3742 94.8155 11.6739 95.5799 11.6739C96.3896 11.6739 96.6444 11.3435 96.6444 10.9842C96.6444 10.6844 96.4944 10.5201 95.9848 10.4154L94.7558 10.1608C92.8816 9.75639 92.3124 8.93305 92.3124 7.86958C92.3124 6.40167 93.4817 5.5025 95.551 5.5025C97.7397 5.5025 98.7156 6.58042 98.9542 8.09348H96.7348C96.5993 7.49223 96.2107 7.31348 95.5799 7.31348Z" fill="white"/>
</svg>
