<svg xmlns="http://www.w3.org/2000/svg" viewBox="0 0 300 300"><defs><style>.cls-1{fill:#2a94f4;}.cls-2{opacity:0.05;}.cls-3,.cls-5{opacity:0.06;}.cls-4,.cls-5{fill:#f1f2f2;}</style></defs><title>Social Media Icons Recolored</title><g id="Layer_1" data-name="Layer 1"><circle class="cls-1" cx="150" cy="133.57" r="108.42"/><path class="cls-2" d="M163.53,241.16a108.44,108.44,0,0,0,0-215.18s67.81,25.65,67.81,107.59S163.53,241.16,163.53,241.16Z"/><ellipse class="cls-2" cx="155.26" cy="264.28" rx="80.68" ry="5.36"/><g class="cls-3"><path class="cls-4" d="M74.84,75.7a3,3,0,0,1-2.72-4.25c.42-.93,10.78-22.79,40-31.25A3,3,0,0,1,113.8,46C87.31,53.63,77.66,73.76,77.56,74A3,3,0,0,1,74.84,75.7Z"/></g><circle class="cls-5" cx="71.05" cy="81" r="3.02"/><path class="cls-4" d="M196.12,138.06v34.11H176.35V140.35c0-8-2.86-13.45-10-13.45-5.46,0-8.71,3.68-10.14,7.23a13.3,13.3,0,0,0-.66,4.82v33.22H135.75s.27-53.9,0-59.48h19.78v8.43a2.14,2.14,0,0,1-.13.19h.13v-.19c2.63-4.05,7.32-9.83,17.83-9.83,13,0,22.76,8.51,22.76,26.77ZM115.07,84c-6.77,0-11.19,4.44-11.19,10.28s4.29,10.27,10.93,10.27h.13c6.9,0,11.19-4.56,11.19-10.27S121.84,84,115.07,84Zm-10,88.15h19.76V112.69H105.06Zm0,0"/></g></svg>